<?xml version="1.0" encoding="UTF-8"?>
<svg id="Layer_1" data-name="Layer 1" xmlns="http://www.w3.org/2000/svg" viewBox="0 0 900 900">
  <defs>
    <style>
      .cls-1 {
        fill: #007293;
      }

      .cls-1, .cls-2 {
        fill-rule: evenodd;
      }

      .cls-2 {
        fill: #eb6300;
      }
    </style>
  </defs>
  <path class="cls-1" d="m323.66,299.07c9.42,6.45,19.01,16.24,19.01,25.7v166.64c0,9.34-8.8,22.54-16.82,27.8h84.83c54.89-2.27,88.18-22.08,92.16-63.63,2.79-29.14-12.6-51.81-50.43-64.58,18.87-7.18,29.02-22.82,29.94-44.39,1.59-37.1-41.59-47.54-68.74-47.54h-89.95Zm52.66,89.22v-69.48h26.03c29.54,0,43.45,14.49,43.44,36.34,0,21.84-19.98,33.14-44.9,33.14h-24.58Zm27.75,109.7h-27.75v-89.96h31.45c46.85,0,61.02,28.17,58.51,51.19-2.51,23.02-22.3,38.76-62.2,38.76h0Zm173.48-198.93h-46.1c10.25,11.41,14.72,17.4,14.72,35.08v151.86c0,17.49-7.75,28.22-18.88,35.82h61.34c-9.11-5.56-18.91-16.47-18.91-36.22v-134.16c30.99,41.39,61.97,82.78,92.96,124.18,17.57,22.98,37.94,42.47,61.69,57.73v-200.01c0-20.03,8.08-27.67,18.88-34.28h-59.8c10.84,8.04,16.59,17.12,16.59,33.48v133.94l-122.49-167.42h0Zm199.65,222.76c12.41-8.23,18.72-17.89,18.72-30.43v-159.07c0-18.81-5.43-23.06-16.07-33.26h70.79c-12.22,6.88-20.79,20.92-20.79,33.26v158.63c0,12.17,7.2,23.32,16.97,30.87h-69.62Z"/>
  <path class="cls-2" d="m45.67,299.07h68.34c-3.57,6.12-6.27,19.89.64,50.83,6.14,27.49,23.9,56.17,42.44,78.84l-23.29,19.12-88.13-110.73v-38.06h0Zm99.8,0c-11.4,20.69,3.23,64.74,25.46,91.6,0,0,3.45-47.1,43.65-63.18,24.92-9.97,41.89-4.71,51.19.73v-29.15h-120.31Zm120.31,67.82v86.77c-27.34,10.37-65.68-16.6-75.31-48.63-13.96-46.42,18.95-63.18,42.5-58.58,17.6,3.43,27.82,13.92,32.81,20.44h0Zm0,101.02c-26.93,14.17-45.87,10.59-62.68,3.17-7.85-3.46-21.74-15.01-36.32-31.08l-23.73,19.48,25.96,32.61c9.23,11.6,28.18,16.13,37.82,14.95l-14.78,12.14h73.73v-51.27h0Zm-114.91,51.27h-80.55l50.19-41.2c4.1,5.16,8.07,10.15,11.84,14.88,7.39,9.29,13.6,18.46,18.52,26.32h0Zm-103.95,0l64.34-52.82c-21.93-27.56-46.42-58.32-65.59-82.41v135.23h1.24Z"/>
  <path class="cls-1" d="m807.27,582.69h0l4.14-.61c.24,1.58.85,2.8,1.95,3.77,1.1.85,2.56,1.34,4.5,1.34,1.83,0,3.29-.49,4.26-1.22.85-.73,1.34-1.7,1.34-2.8,0-.85-.37-1.58-1.22-2.19-.61-.37-2.07-.85-4.26-1.34-3.04-.85-5.23-1.46-6.33-2.07-1.22-.61-2.19-1.34-2.8-2.31s-.85-2.07-.85-3.29c0-1.1.24-2.19.73-3.04.49-.97,1.22-1.7,2.07-2.31.61-.49,1.58-.97,2.68-1.22,1.1-.37,2.31-.61,3.53-.61,1.95,0,3.65.36,5.11.85,1.46.61,2.56,1.34,3.29,2.31.61.97,1.1,2.19,1.46,3.77l-4.14.61c-.25-1.34-.73-2.31-1.58-3.04-.85-.61-2.19-.97-3.77-.97-1.95,0-3.29.24-4.14.85-.85.73-1.22,1.46-1.22,2.31,0,.49.24.97.49,1.46.36.37.85.73,1.58,1.1.49.12,1.7.49,3.77,1.09,2.92.73,4.99,1.34,6.09,1.95,1.22.49,2.19,1.22,2.8,2.19.61.85.97,2.07.97,3.53,0,1.34-.36,2.68-1.22,3.89-.73,1.22-1.95,2.19-3.53,2.92-1.46.61-3.16.97-5.11.97-3.29,0-5.72-.73-7.3-2.07-1.7-1.34-2.8-3.28-3.29-5.84h0Zm34.8-6.94c2.8-.36,4.87-.85,6.33-1.34v-1.1c0-1.7-.36-2.92-1.22-3.65-.97-.85-2.55-1.34-4.74-1.34h-.37c-1.7,0-3.04.37-3.9.97-.97.73-1.7,1.95-2.07,3.65l-4.14-.49c.36-1.82.97-3.16,1.82-4.26.85-1.1,2.07-1.95,3.77-2.44,1.34-.49,2.8-.85,4.5-.85.37-.12.73-.12.97-.12,2.19,0,3.89.36,5.11.85,1.34.49,2.31,1.1,2.92,1.82.61.73,1.1,1.7,1.34,2.8.12.73.25,2.07.25,3.9v5.47c0,3.89,0,6.45.24,7.42.12.97.49,2.07,1.1,2.92h-4.38c-.49-.85-.73-1.82-.85-3.04-1.58,1.34-3.04,2.31-4.5,2.8-.73.24-1.46.49-2.19.61-.73.12-1.58.24-2.43.24-2.68,0-4.75-.73-6.21-1.95-1.46-1.34-2.19-3.04-2.19-5.11,0-1.22.37-2.31.85-3.29.61-.97,1.22-1.83,2.19-2.43.85-.61,1.82-1.1,2.92-1.34.85-.24,2.07-.49,3.77-.61.37-.12.73-.12,1.1-.12h0Zm0,11.44c1.09-.12,2.07-.49,2.92-.97,1.22-.61,2.19-1.58,2.8-2.8.37-.97.61-2.43.61-4.26v-1.46c-1.46.61-3.53,1.09-6.33,1.46-.12,0-.37.12-.49.12-1.7.24-2.92.49-3.65.85-.73.24-1.22.73-1.58,1.34-.49.61-.61,1.22-.61,1.94,0,1.1.37,2.07,1.22,2.8.85.73,2.07,1.1,3.77,1.1.49,0,.85,0,1.34-.12h0Zm-795.08,2.8h0v-33.95h6.82l8.03,24.09c.73,2.19,1.34,3.9,1.58,4.99.49-1.22,1.09-3.04,1.83-5.48l8.15-23.61h6.08v33.95h-4.38v-28.35l-9.86,28.35h-4.02l-9.86-28.84v28.84h-4.38Zm65.47,0h0v-33.95h4.26v33.95h-4.26Zm-16.31-14.6h6.94c-.24-2.07-.73-3.65-1.58-4.74-1.34-1.58-3.04-2.31-5.11-2.31h-.24c-1.82,0-3.41.61-4.62,1.83-1.34,1.34-2.07,3.04-2.19,5.23h6.81Zm0,11.8h.37c1.58,0,2.8-.49,3.89-1.22,1.1-.85,1.95-2.07,2.68-3.89l4.26.49c-.73,2.56-1.95,4.5-3.77,5.96-1.82,1.34-4.26,2.07-7.06,2.07h-.37c-3.41-.12-6.21-1.22-8.15-3.41-2.19-2.19-3.16-5.23-3.16-9.25s.97-7.42,3.16-9.61c2.07-2.31,4.87-3.41,8.15-3.53h.12c3.29,0,5.96,1.22,8.03,3.41,2.19,2.19,3.16,5.35,3.16,9.49v1.09h-18.37c.12,2.68.97,4.75,2.31,6.21,1.34,1.34,2.92,2.07,4.75,2.19h0Zm53.18,12.29h0l-.49-3.9c.97.24,1.7.37,2.44.37.85,0,1.58-.12,2.19-.49.61-.25.97-.73,1.34-1.34.37-.37.73-1.34,1.34-3.04,0-.25.12-.61.37-.97l-9.37-24.7h4.5l5.11,14.24c.73,1.83,1.34,3.77,1.83,5.72.49-1.95.97-3.77,1.7-5.6l5.23-14.36h4.14l-9.37,25.07c-.97,2.68-1.7,4.5-2.31,5.6-.73,1.34-1.58,2.31-2.56,2.92-.97.73-2.07.97-3.41.97-.85,0-1.7-.12-2.68-.49h0Zm-16.79-23.73c2.8-.36,4.87-.85,6.33-1.34v-1.1c0-1.7-.37-2.92-1.22-3.65-1.1-.85-2.68-1.34-4.75-1.34h-.37c-1.83,0-3.04.37-4.02.97-.85.73-1.58,1.95-2.07,3.65l-4.01-.49c.37-1.82.97-3.16,1.83-4.26.85-1.1,2.07-1.95,3.65-2.44,1.34-.49,2.92-.85,4.63-.85.24-.12.61-.12.97-.12,2.07,0,3.77.36,5.11.85,1.34.49,2.31,1.1,2.92,1.82.61.73,1.1,1.7,1.34,2.8.12.73.12,2.07.12,3.9v5.47c0,3.89.12,6.45.36,7.42.12.97.49,2.07.97,2.92h-4.38c-.37-.85-.61-1.82-.73-3.04-1.58,1.34-3.04,2.31-4.5,2.8-.73.24-1.46.49-2.19.61-.85.12-1.58.24-2.43.24-2.68,0-4.75-.73-6.21-1.95-1.46-1.34-2.19-3.04-2.19-5.11,0-1.22.24-2.31.85-3.29.49-.97,1.22-1.83,2.07-2.43.97-.61,1.95-1.1,3.04-1.34.85-.24,2.07-.49,3.77-.61.37-.12.73-.12,1.1-.12h0Zm0,11.44c.97-.12,1.95-.49,2.92-.97,1.22-.61,2.07-1.58,2.68-2.8.49-.97.73-2.43.73-4.26v-1.46c-1.46.61-3.53,1.09-6.33,1.46-.24,0-.37.12-.49.12-1.7.24-2.92.49-3.65.85-.73.24-1.34.73-1.7,1.34-.37.61-.49,1.22-.49,1.94,0,1.1.36,2.07,1.22,2.8.85.73,2.07,1.1,3.65,1.1.49,0,.97,0,1.46-.12h0Zm117.67,2.8h0v-33.95h4.62l17.89,26.65v-26.65h4.26v33.95h-4.62l-17.77-26.65v26.65h-4.38Zm-24.21,0h0v-24.58h4.26v24.58h-4.26Zm0-29.08h0v-4.87h4.26v4.87h-4.26Zm-26.41,29.08h0v-24.58h3.77v3.53c1.82-2.68,4.5-4.14,7.91-4.14,1.46,0,2.8.36,4.01.85,1.22.49,2.19,1.22,2.8,2.07.61.85,1.1,1.95,1.34,3.16.12.73.24,2.07.24,4.02v15.09h-4.26v-14.97c0-1.71-.12-2.92-.49-3.77-.24-.85-.85-1.58-1.7-2.07-.85-.49-1.7-.73-2.92-.73-1.7,0-3.28.61-4.5,1.7-1.34,1.1-1.95,3.29-1.95,6.45v13.38h-4.26Zm-16.91-14.24c2.8-.36,4.87-.85,6.33-1.34v-1.1c0-1.7-.36-2.92-1.22-3.65-1.09-.85-2.68-1.34-4.74-1.34h-.37c-1.83,0-3.17.37-4.02.97-.85.73-1.58,1.95-2.07,3.65l-4.02-.49c.36-1.82.97-3.16,1.83-4.26.85-1.1,2.07-1.95,3.65-2.44,1.34-.49,2.92-.85,4.63-.85.24-.12.61-.12.97-.12,2.07,0,3.77.36,5.11.85,1.34.49,2.31,1.1,2.92,1.82.61.73.97,1.7,1.34,2.8.12.73.12,2.07.12,3.9v5.47c0,3.89.12,6.45.24,7.42.24.97.61,2.07,1.1,2.92h-4.38c-.36-.85-.73-1.82-.85-3.04-1.46,1.34-2.92,2.31-4.38,2.8-.73.24-1.46.49-2.19.61-.85.12-1.58.24-2.43.24-2.68,0-4.75-.73-6.21-1.95-1.46-1.34-2.19-3.04-2.19-5.11,0-1.22.24-2.31.85-3.29.49-.97,1.22-1.83,2.07-2.43.97-.61,1.95-1.1,3.04-1.34.85-.24,2.07-.49,3.65-.61.49-.12.85-.12,1.22-.12h0Zm0,11.44c.97-.12,1.95-.49,2.8-.97,1.34-.61,2.19-1.58,2.8-2.8.49-.97.73-2.43.73-4.26v-1.46c-1.46.61-3.65,1.09-6.33,1.46-.24,0-.37.12-.49.12-1.7.24-2.92.49-3.65.85-.73.24-1.34.73-1.7,1.34-.37.61-.61,1.22-.61,1.94,0,1.1.49,2.07,1.34,2.8.85.73,2.07,1.1,3.65,1.1.49,0,.97,0,1.46-.12h0Zm111.34-11.8h6.94c-.24-2.07-.73-3.65-1.58-4.74-1.34-1.58-3.04-2.31-5.23-2.31h-.12c-1.83,0-3.41.61-4.62,1.83-1.34,1.34-2.07,3.04-2.19,5.23h6.82Zm0,11.8h.37c1.58,0,2.8-.49,3.9-1.22,1.09-.85,1.95-2.07,2.55-3.89l4.38.49c-.73,2.56-1.95,4.5-3.77,5.96-1.83,1.34-4.26,2.07-7.06,2.07h-.37c-3.41-.12-6.21-1.22-8.27-3.41-2.07-2.19-3.16-5.23-3.16-9.25s1.1-7.42,3.29-9.61c2.07-2.31,4.87-3.41,8.15-3.53h.12c3.28,0,5.96,1.22,8.03,3.41,2.07,2.19,3.16,5.35,3.16,9.49v1.09h-18.38c.12,2.68.85,4.75,2.31,6.21,1.22,1.34,2.92,2.07,4.74,2.19h0Zm25.8-.61c1.95,0,3.53-.73,4.87-2.19,1.34-1.46,1.95-3.77,1.95-6.94s-.73-5.35-2.07-6.81c-1.22-1.58-2.8-2.31-4.74-2.31s-3.41.73-4.75,2.19c-1.34,1.58-1.95,3.77-1.95,6.81s.61,5.48,1.95,7.06c1.22,1.46,2.8,2.19,4.75,2.19h0Zm0,9.98c1.7-.12,3.04-.49,4.01-1.22,1.1-.73,1.7-1.82,2.19-3.17.12-.85.24-2.68.24-5.35-1.7,2.07-3.89,3.04-6.45,3.16h-.37c-3.41,0-5.96-1.22-7.91-3.65-1.82-2.43-2.68-5.35-2.68-8.76,0-2.31.37-4.5,1.22-6.45.85-2.07,2.07-3.53,3.65-4.62,1.7-1.09,3.53-1.7,5.72-1.7h.37c2.8.12,4.99,1.34,6.81,3.53v-2.92h3.89v21.29c0,3.77-.37,6.57-1.22,8.15-.73,1.58-1.95,2.8-3.65,3.77-1.58.85-3.53,1.34-5.84,1.34h-.49c-2.92,0-5.23-.61-7.06-1.95-1.82-1.34-2.68-3.28-2.68-5.96l4.14.61c.12,1.22.61,2.19,1.34,2.68,1.1.85,2.56,1.22,4.26,1.22h.49Zm96.49-6.57h0v-33.95h4.5v16.91l16.79-16.91h6.09l-14.24,13.75,14.85,20.2h-5.84l-12.17-17.16-5.47,5.48v11.68h-4.5Zm-25.67,0h0v-4.74h4.74v4.74c0,1.83-.24,3.17-.97,4.26-.61,1.1-1.58,1.95-2.92,2.43l-1.09-1.7c.85-.37,1.46-.97,1.95-1.7.36-.73.61-1.82.61-3.29h-2.31Zm-11.56,0h0v-24.58h4.14v24.58h-4.14Zm0-29.08h0v-4.87h4.14v4.87h-4.14Zm-15.94,29.08h0v-24.58h3.77v3.77c.97-1.82,1.83-2.92,2.68-3.53.73-.49,1.7-.85,2.68-.85,1.34,0,2.8.49,4.26,1.34l-1.46,3.9c-.97-.61-2.07-.85-3.04-.85-.85,0-1.7.24-2.43.85-.73.49-1.22,1.22-1.58,2.19-.49,1.58-.73,3.16-.73,4.87v12.9h-4.14Zm-16.31-14.6h6.82c-.12-2.07-.61-3.65-1.46-4.74-1.34-1.58-3.16-2.31-5.23-2.31h-.12c-1.82,0-3.41.61-4.74,1.83-1.22,1.34-1.95,3.04-2.07,5.23h6.81Zm0,11.8h.37c1.46,0,2.8-.49,3.9-1.22,1.09-.85,1.95-2.07,2.55-3.89l4.26.49c-.61,2.56-1.83,4.5-3.77,5.96-1.82,1.34-4.14,2.07-6.94,2.07h-.37c-3.41-.12-6.21-1.22-8.27-3.41-2.07-2.19-3.17-5.23-3.17-9.25s1.1-7.42,3.29-9.61c2.07-2.31,4.74-3.41,8.15-3.53h.12c3.28,0,5.96,1.22,8.03,3.41,2.07,2.19,3.16,5.35,3.16,9.49,0,.24,0,.61-.12,1.09h-18.25c.12,2.68.85,4.75,2.31,6.21,1.22,1.34,2.8,2.07,4.74,2.19h0Zm110.61-11.8h6.94c-.24-2.07-.73-3.65-1.58-4.74-1.34-1.58-3.04-2.31-5.23-2.31h-.12c-1.82,0-3.41.61-4.62,1.83-1.34,1.34-2.07,3.04-2.19,5.23h6.81Zm0,11.8h.37c1.46,0,2.8-.49,3.89-1.22,1.1-.85,1.95-2.07,2.56-3.89l4.38.49c-.73,2.56-1.95,4.5-3.77,5.96-1.94,1.34-4.26,2.07-7.06,2.07h-.37c-3.41-.12-6.21-1.22-8.15-3.41-2.07-2.19-3.16-5.23-3.16-9.25s1.09-7.42,3.29-9.61c1.95-2.31,4.75-3.41,8.03-3.53h.12c3.29,0,5.96,1.22,8.03,3.41,2.07,2.19,3.16,5.35,3.16,9.49v1.09h-18.25c0,2.68.73,4.75,2.19,6.21,1.22,1.34,2.8,2.07,4.74,2.19h0Zm26.77-22.27c.24-.12.36-.12.49-.12,1.58,0,2.92.36,4.38.97,1.34.61,2.43,1.46,3.29,2.56.85,1.1,1.58,2.43,2.07,4.02.49,1.58.73,3.29.73,4.99,0,4.26-1.1,7.55-3.16,9.74-2.07,2.31-4.62,3.53-7.54,3.53h-.24c-2.68-.12-4.87-1.34-6.57-3.65v3.04h-3.77v-33.95h4.14v12.17c1.58-2.07,3.77-3.29,6.21-3.29h0Zm0,22.27c1.83-.12,3.41-.85,4.63-2.43,1.34-1.58,2.07-3.89,2.07-7.06s-.61-5.6-1.95-7.06c-1.22-1.58-2.8-2.31-4.62-2.31h-.12c-1.7,0-3.29.73-4.62,2.31-1.34,1.58-1.95,3.89-1.95,6.93s.37,4.99,1.22,6.33c1.34,2.19,3.04,3.29,5.35,3.29h0Zm42.47,2.8h0v-24.58h3.65v3.53c1.83-2.68,4.5-4.14,7.91-4.14,1.46,0,2.8.36,4.02.85,1.34.49,2.19,1.22,2.8,2.07.61.85,1.09,1.95,1.34,3.16.12.73.24,2.07.24,4.02v15.09h-4.14v-14.97c0-1.71-.24-2.92-.49-3.77-.36-.85-.97-1.58-1.82-2.07-.73-.49-1.7-.73-2.92-.73-1.71,0-3.29.61-4.5,1.7-1.34,1.1-1.95,3.29-1.95,6.45v13.38h-4.14Zm-17.04-14.24c2.8-.36,4.87-.85,6.33-1.34v-1.1c0-1.7-.37-2.92-1.22-3.65-1.1-.85-2.68-1.34-4.75-1.34h-.37c-1.82,0-3.04.37-4.02.97-.85.73-1.58,1.95-2.07,3.65l-4.01-.49c.37-1.82.97-3.16,1.82-4.26.85-1.1,2.07-1.95,3.65-2.44,1.34-.49,2.92-.85,4.62-.85.24-.12.61-.12.97-.12,2.07,0,3.77.36,5.11.85,1.34.49,2.31,1.1,2.92,1.82.61.73,1.1,1.7,1.34,2.8.12.73.12,2.07.12,3.9v5.47c0,3.89.12,6.45.37,7.42.12.97.49,2.07.97,2.92h-4.38c-.37-.85-.61-1.82-.73-3.04-1.58,1.34-3.04,2.31-4.5,2.8-.73.24-1.46.49-2.19.61-.85.12-1.58.24-2.43.24-2.68,0-4.75-.73-6.21-1.95-1.46-1.34-2.19-3.04-2.19-5.11,0-1.22.25-2.31.85-3.29.49-.97,1.22-1.83,2.07-2.43.97-.61,1.95-1.1,3.04-1.34.85-.24,2.07-.49,3.77-.61.36-.12.73-.12,1.09-.12h0Zm0,11.44c.97-.12,1.95-.49,2.8-.97,1.34-.61,2.19-1.58,2.8-2.8.49-.97.73-2.43.73-4.26v-1.46c-1.46.61-3.65,1.09-6.33,1.46-.24,0-.37.12-.49.12-1.7.24-2.92.49-3.65.85-.73.24-1.34.73-1.7,1.34-.36.61-.49,1.22-.49,1.94,0,1.1.37,2.07,1.22,2.8.85.73,2.07,1.1,3.65,1.1.49,0,.97,0,1.46-.12h0Zm52.81-.61c1.95,0,3.53-.73,4.75-2.19,1.34-1.46,1.95-3.77,1.95-6.94s-.61-5.35-1.95-6.81c-1.34-1.58-2.92-2.31-4.75-2.31h-.12c-1.83,0-3.41.73-4.75,2.19-1.22,1.58-1.95,3.77-1.95,6.81s.73,5.48,1.95,7.06c1.34,1.46,2.92,2.19,4.87,2.19h0Zm0,9.98c1.7-.12,3.04-.49,4.02-1.22.97-.73,1.7-1.82,2.07-3.17.24-.85.36-2.68.36-5.35-1.83,2.07-3.89,3.04-6.45,3.16h-.37c-3.41,0-6.08-1.22-7.91-3.65-1.83-2.43-2.8-5.35-2.8-8.76,0-2.31.49-4.5,1.34-6.45.85-2.07,2.07-3.53,3.65-4.62,1.58-1.09,3.53-1.7,5.72-1.7h.37c2.68.12,4.99,1.34,6.81,3.53v-2.92h3.9v21.29c0,3.77-.49,6.57-1.22,8.15-.85,1.58-2.07,2.8-3.77,3.77-1.58.85-3.41,1.34-5.72,1.34h-.49c-2.92,0-5.35-.61-7.06-1.95-1.83-1.34-2.68-3.28-2.68-5.96l4.02.61c.24,1.22.73,2.19,1.46,2.68,1.09.85,2.43,1.22,4.26,1.22h.49Zm26.41-9.98c1.94,0,3.53-.73,4.74-2.19,1.34-1.46,1.95-3.77,1.95-6.94s-.61-5.35-1.95-6.81c-1.34-1.58-2.92-2.31-4.74-2.31h-.12c-1.82,0-3.41.73-4.74,2.19-1.22,1.58-1.95,3.77-1.95,6.81s.73,5.48,1.95,7.06c1.34,1.46,2.92,2.19,4.87,2.19h0Zm0,9.98c1.7-.12,3.04-.49,4.02-1.22.97-.73,1.7-1.82,2.07-3.17.24-.85.37-2.68.37-5.35-1.83,2.07-3.9,3.04-6.45,3.16h-.37c-3.41,0-6.08-1.22-7.91-3.65-1.83-2.43-2.8-5.35-2.8-8.76,0-2.31.49-4.5,1.34-6.45.85-2.07,2.07-3.53,3.65-4.62,1.58-1.09,3.53-1.7,5.72-1.7h.37c2.68.12,4.99,1.34,6.81,3.53v-2.92h3.77v21.29c0,3.77-.36,6.57-1.1,8.15-.85,1.58-2.07,2.8-3.77,3.77-1.58.85-3.53,1.34-5.72,1.34h-.49c-2.92,0-5.35-.61-7.06-1.95-1.82-1.34-2.8-3.28-2.68-5.96l4.02.61c.24,1.22.73,2.19,1.46,2.68.97.85,2.43,1.22,4.26,1.22h.49Zm26.28-20.81c2.8-.36,4.99-.85,6.33-1.34v-1.1c0-1.7-.37-2.92-1.1-3.65-1.1-.85-2.68-1.34-4.75-1.34h-.49c-1.71,0-3.04.37-3.89.97-.97.73-1.58,1.95-2.07,3.65l-4.14-.49c.49-1.82,1.1-3.16,1.83-4.26.85-1.1,2.19-1.95,3.77-2.44,1.34-.49,2.8-.85,4.5-.85.36-.12.73-.12,1.09-.12,2.07,0,3.77.36,5.11.85,1.34.49,2.19,1.1,2.92,1.82.61.73.97,1.7,1.22,2.8.12.73.24,2.07.24,3.9v5.47c0,3.89.12,6.45.24,7.42.24.97.49,2.07,1.09,2.92h-4.38c-.49-.85-.73-1.82-.85-3.04-1.58,1.34-3.04,2.31-4.5,2.8-.61.24-1.46.49-2.19.61-.73.12-1.58.24-2.31.24-2.8,0-4.87-.73-6.33-1.95-1.34-1.34-2.07-3.04-2.07-5.11,0-1.22.24-2.31.73-3.29.61-.97,1.34-1.83,2.19-2.43.85-.61,1.95-1.1,3.04-1.34.73-.24,2.07-.49,3.65-.61.37-.12.73-.12,1.1-.12h0Zm0,11.44c1.09-.12,2.07-.49,2.92-.97,1.22-.61,2.19-1.58,2.8-2.8.37-.97.61-2.43.61-4.26v-1.46c-1.46.61-3.53,1.09-6.33,1.46-.12,0-.24.12-.49.12-1.7.24-2.92.49-3.65.85-.61.24-1.22.73-1.58,1.34-.37.61-.61,1.22-.61,1.94,0,1.1.49,2.07,1.34,2.8.73.73,2.07,1.1,3.65,1.1.49,0,.97,0,1.34-.12h0Zm43.44,2.8h0v-24.58h3.77v3.53c1.83-2.68,4.38-4.14,7.79-4.14,1.46,0,2.92.36,4.14.85,1.22.49,2.19,1.22,2.8,2.07.61.85.97,1.95,1.22,3.16.24.73.24,2.07.24,4.02v15.09h-4.14v-14.97c0-1.71-.12-2.92-.49-3.77-.36-.85-.85-1.58-1.7-2.07-.85-.49-1.82-.73-2.92-.73-1.82,0-3.29.61-4.62,1.7-1.34,1.1-1.95,3.29-1.95,6.45v13.38h-4.14Zm-17.04-14.24c2.8-.36,4.99-.85,6.33-1.34v-1.1c0-1.7-.37-2.92-1.1-3.65-1.1-.85-2.68-1.34-4.74-1.34h-.49c-1.7,0-3.04.37-3.89.97-.97.73-1.58,1.95-2.07,3.65l-4.14-.49c.37-1.82.97-3.16,1.82-4.26.85-1.1,2.19-1.95,3.77-2.44,1.34-.49,2.8-.85,4.5-.85.37-.12.73-.12,1.1-.12,2.07,0,3.77.36,5.11.85,1.22.49,2.19,1.1,2.8,1.82.73.73,1.1,1.7,1.34,2.8.12.73.24,2.07.24,3.9v5.47c0,3.89.12,6.45.24,7.42.12.97.49,2.07,1.1,2.92h-4.38c-.49-.85-.73-1.82-.85-3.04-1.58,1.34-3.04,2.31-4.5,2.8-.73.24-1.46.49-2.19.61-.73.12-1.58.24-2.31.24-2.8,0-4.87-.73-6.33-1.95-1.46-1.34-2.19-3.04-2.19-5.11,0-1.22.37-2.31.85-3.29.61-.97,1.34-1.83,2.19-2.43.85-.61,1.83-1.1,3.04-1.34.73-.24,1.95-.49,3.65-.61.36-.12.73-.12,1.09-.12h0Zm0,11.44c1.1-.12,2.07-.49,2.92-.97,1.22-.61,2.19-1.58,2.8-2.8.36-.97.61-2.43.61-4.26v-1.46c-1.46.61-3.53,1.09-6.33,1.46-.12,0-.24.12-.49.12-1.7.24-2.92.49-3.65.85-.73.24-1.22.73-1.58,1.34-.37.61-.61,1.22-.61,1.94,0,1.1.49,2.07,1.22,2.8.85.73,2.07,1.1,3.77,1.1.49,0,.85,0,1.34-.12h0Zm69-31.15h.73c2.56,0,4.62.37,6.21,1.1,1.58.61,2.8,1.7,3.65,3.16.97,1.34,1.34,2.92,1.34,4.5,0,1.34-.37,2.8-1.09,4.02-.85,1.34-2.07,2.31-3.65,3.16,2.07.61,3.65,1.58,4.74,3.04,1.1,1.46,1.71,3.16,1.71,5.11,0,1.58-.37,3.16-.97,4.5-.73,1.34-1.58,2.43-2.56,3.16-.97.73-2.19,1.22-3.65,1.71-1.58.37-3.41.49-5.6.49h-12.9v-33.95h12.05Zm0,14.24c1.82,0,3.29-.12,4.14-.37,1.1-.37,1.95-.85,2.56-1.7.61-.73.85-1.7.85-2.92,0-1.09-.24-2.19-.85-3.04-.49-.85-1.34-1.34-2.31-1.7-.85-.24-2.31-.49-4.38-.49h-7.54v10.22h7.54Zm0,15.7h.85c1.46,0,2.56,0,3.16-.12.97-.24,1.83-.49,2.55-.97.73-.37,1.22-.97,1.7-1.83.49-.85.73-1.83.73-2.92,0-1.22-.37-2.31-.97-3.29-.73-.97-1.58-1.58-2.8-1.95-1.1-.37-2.8-.61-4.87-.61h-7.91v11.68h7.54Zm45.63,4.01h0v-24.58h3.77v3.53c1.83-2.68,4.38-4.14,7.79-4.14,1.58,0,2.92.36,4.14.85,1.22.49,2.19,1.22,2.8,2.07.61.85,1.1,1.95,1.34,3.16.12.73.24,2.07.24,4.02v15.09h-4.26v-14.97c0-1.71-.12-2.92-.49-3.77-.24-.85-.85-1.58-1.7-2.07-.85-.49-1.82-.73-2.92-.73-1.7,0-3.29.61-4.62,1.7-1.22,1.1-1.95,3.29-1.95,6.45v13.38h-4.14Zm-17.04-14.24c2.8-.36,4.99-.85,6.33-1.34.12-.61.12-.97.12-1.1,0-1.7-.49-2.92-1.22-3.65-1.1-.85-2.68-1.34-4.74-1.34h-.49c-1.7,0-3.04.37-3.89.97-.97.73-1.58,1.95-2.07,3.65l-4.02-.49c.37-1.82.97-3.16,1.83-4.26.85-1.1,2.07-1.95,3.65-2.44,1.34-.49,2.8-.85,4.5-.85.37-.12.73-.12,1.1-.12,2.07,0,3.77.36,5.11.85,1.34.49,2.31,1.1,2.92,1.82.61.73.97,1.7,1.22,2.8.12.73.24,2.07.24,3.9v5.47c0,3.89.12,6.45.24,7.42.24.97.61,2.07,1.1,2.92h-4.38c-.37-.85-.73-1.82-.85-3.04-1.46,1.34-3.04,2.31-4.38,2.8-.73.24-1.46.49-2.31.61-.73.12-1.58.24-2.31.24-2.68,0-4.75-.73-6.21-1.95-1.46-1.34-2.19-3.04-2.19-5.11,0-1.22.24-2.31.73-3.29.61-.97,1.34-1.83,2.19-2.43.85-.61,1.95-1.1,3.04-1.34.73-.24,2.07-.49,3.65-.61.37-.12.73-.12,1.1-.12h0Zm0,11.44c1.1-.12,2.07-.49,2.92-.97,1.22-.61,2.19-1.58,2.8-2.8.49-.97.61-2.43.61-4.26v-1.46c-1.34.61-3.53,1.09-6.33,1.46-.12,0-.24.12-.49.12-1.7.24-2.92.49-3.53.85-.73.24-1.34.73-1.7,1.34-.37.61-.61,1.22-.61,1.94,0,1.1.49,2.07,1.34,2.8.73.73,2.07,1.1,3.65,1.1.49,0,.97,0,1.34-.12h0Zm52.93-.61c1.83,0,3.53-.73,4.74-2.19,1.34-1.46,1.95-3.77,1.95-6.94s-.61-5.35-1.95-6.81c-1.34-1.58-2.92-2.31-4.74-2.31h-.12c-1.82,0-3.41.73-4.74,2.19-1.34,1.58-1.95,3.77-1.95,6.81s.61,5.48,1.95,7.06c1.34,1.46,2.92,2.19,4.87,2.19h0Zm0,9.98c1.7-.12,2.92-.49,3.89-1.22,1.1-.73,1.83-1.82,2.19-3.17.24-.85.24-2.68.24-5.35-1.7,2.07-3.77,3.04-6.33,3.16h-.49c-3.41,0-5.96-1.22-7.79-3.65-1.83-2.43-2.8-5.35-2.8-8.76,0-2.31.36-4.5,1.22-6.45.85-2.07,2.19-3.53,3.77-4.62,1.58-1.09,3.53-1.7,5.72-1.7h.37c2.68.12,4.99,1.34,6.81,3.53v-2.92h3.77v21.29c0,3.77-.36,6.57-1.1,8.15-.85,1.58-2.07,2.8-3.77,3.77-1.58.85-3.53,1.34-5.72,1.34h-.49c-2.92,0-5.35-.61-7.18-1.95-1.82-1.34-2.68-3.28-2.56-5.96l4.01.61c.24,1.22.61,2.19,1.46,2.68.97.85,2.43,1.22,4.26,1.22h.49Z"/>
</svg>