<?xml version="1.0" encoding="UTF-8"?>
<svg id="Layer_1" data-name="Layer 1" xmlns="http://www.w3.org/2000/svg" viewBox="0 0 960 960">
  <defs>
    <style>
      .cls-1 {
        fill: #108ee9;
        fill-rule: evenodd;
        stroke-width: 0px;
      }
    </style>
  </defs>
  <path class="cls-1" d="M40,480.05c0-73.96,60.06-133.92,134.15-133.92s134.15,59.96,134.15,133.92-60.06,133.92-134.15,133.92c-74.1,0-134.15-59.95-134.15-133.92ZM138.62,450c-3.03.44-6.06.69-9.07.69-4.05,0-8.08-.44-12.1-1.4-6.37-1.53-12.14-4.32-17.56-7.9-.71-.46-2.01-.93-2.49-.6-.63.42-.99,1.63-1,2.51-.09,5.09-.04,10.19-.04,15.28v59.22c-.01,2.76.95,5,3.31,6.48,9.91,6.18,20.76,8.89,32.44,8.39,9.1-.38,17.88-2.4,26.48-5.18,9.57-3.1,19.06-6.45,28.6-9.64,8.35-2.78,16.84-5.06,25.63-5.89,12.83-1.21,24.93,1.1,36,7.93,2.56,1.58,3.64.95,3.64-1.98v-40.51c0-11.33-.01-22.67.01-33.99,0-3.24-1.4-5.58-4.07-7.39-14.5-9.8-30.31-11.02-46.68-6.45-9.56,2.66-18.86,6.23-28.17,9.69-11.45,4.25-22.74,8.93-34.94,10.75ZM397.4,415.78h.24s.24,0,.24,0c.08,0,.16.01.24.01h2.02l-.35.07c33.3,1.17,59.97,28.81,59.97,62.83s-26.75,61.76-60.13,62.84l.51.13h-47.12v-125.87h44.14s.24-.01.24-.01ZM506.16,468.6c.66-29.29,24.24-52.84,53.31-52.84s52.66,23.55,53.31,52.84h.06v73.02h-26.68v-27h-53.39v27h-26.68v-73.02h.07ZM532.77,469.68v17.93h53.39v-17.93h-.01c-.07-14.86-11.99-26.88-26.68-26.88s-26.6,12.02-26.69,26.88h0ZM865.74,415.76c-29.06,0-52.66,23.55-53.31,52.84h-.07v73.02h26.68v-27h53.39v27h26.69v-73.02h-.07c-.65-29.29-24.25-52.84-53.31-52.84ZM839.05,469.68v17.93h53.39v-17.93h-.01c-.08-14.86-11.99-26.88-26.68-26.88s-26.6,12.02-26.68,26.88h-.01ZM659.31,468.6h.07c.65-29.29,24.24-52.84,53.31-52.84s52.66,23.55,53.31,52.84h.06v73.03h-26.69v-71.96c-.1-14.85-12-26.87-26.69-26.87s-26.6,12.02-26.69,26.86h0v71.97h-26.69v-73.03h0ZM379.64,447.83v-5.02l20.14.09c18.57,1.13,33.3,16.71,33.3,35.79s-14.65,34.59-33.16,35.8l-20.28.04v-5.02h.05s0-61.7,0-61.7h-.05s0,.01,0,.01Z"/>
</svg>