<?xml version="1.0" encoding="UTF-8"?>
<svg version="1.1" xmlns="http://www.w3.org/2000/svg" width="170" height="32">
<path d="M0 0 C165 0 330 0 500 0 C500 165 500 330 500 500 C335 500 170 500 0 500 C0 335 0 170 0 0 Z " fill="#FEFEFE" transform="translate(0,0)"/>
<path d="M0 0 C-1 3 -1 3 -3 4 C-5.0407153 4.10405914 -7.08271051 4.18366113 -9.125 4.25 C-15.36435614 4.73680691 -19.45955651 5.59911932 -24 10 C-29.02382732 15.9029971 -33.38747825 22.14866565 -37 29 C-37.68835938 30.19302734 -37.68835938 30.19302734 -38.390625 31.41015625 C-42.34966442 38.35847039 -45.29814581 45.48023768 -48 53 C-43.08548327 52.9733991 -38.65676358 52.63730957 -34 51 C-31.91993516 48.1602593 -31.08899211 45.58594533 -30.0546875 42.23046875 C-28.3772605 37.09257198 -25.31257001 33.21030432 -22 29 C-21.42765625 28.25105469 -20.8553125 27.50210938 -20.265625 26.73046875 C-16.35348722 21.95732629 -11.96710945 18.23360073 -7 14.625 C-6.14619751 13.99948242 -6.14619751 13.99948242 -5.27514648 13.36132812 C2.21847309 8.12273791 10.80164538 5.19312679 20 6 C23.4375 7.5625 23.4375 7.5625 26 10 C26.4375 13.6875 26.4375 13.6875 26 17 C25 18 25 18 21.875 18.4375 C17.75991501 17.97289363 17.32575111 17.69972809 14.5625 15 C12.07568553 12.66895915 10.44013489 11.47252081 7 11.1875 C2.82322989 11.59635849 0.59990902 13.33172516 -2.140625 16.41796875 C-10.71931247 28.33080997 -16.06499394 41.40119446 -20.16796875 55.41015625 C-21 58 -21 58 -22 59 C-22.25242757 62.40925713 -22.18523075 65.83250749 -22.1875 69.25 C-22.19974609 70.20519531 -22.21199219 71.16039062 -22.22460938 72.14453125 C-22.26312912 78.79951682 -22.26312912 78.79951682 -20 85 C-13.4113981 83.81405166 -10.93419568 81.26619319 -7 76 C-4.93624332 72.91436703 -3.01832066 69.75490617 -1.125 66.5625 C-0.62742187 65.73556641 -0.12984375 64.90863281 0.3828125 64.05664062 C1.59441861 62.04118046 2.79997058 60.02236672 4 58 C4.33 58.66 4.66 59.32 5 60 C3.8889595 62.2943438 2.73241585 64.43721534 1.4375 66.625 C1.06761963 67.25801025 0.69773926 67.89102051 0.31665039 68.54321289 C-4.97971412 77.48347619 -11.6955474 88.49648612 -22 92 C-25.11359678 92.48445824 -27.89929084 92.61540792 -31 92 C-35.43159421 88.26813119 -37.55893574 82.42718852 -38.2890625 76.75390625 C-38.55914564 69.27751378 -36.70346397 62.23972186 -35 55 C-39.95 55.33 -44.9 55.66 -50 56 C-51.2375 59.09375 -51.2375 59.09375 -52.5 62.25 C-60.07110066 80.32922975 -73.50716518 97.75103016 -91.8125 105.75 C-99.95134481 108.94170385 -107.89957234 109.09388247 -116.12109375 105.90234375 C-118.83793625 104.59758155 -120.34549106 103.55070128 -122 101 C-123.16022416 97.13799512 -123.41554849 94.11678656 -122 90.3125 C-117.24790001 84.81788439 -111.49275206 82.0580396 -104.75 79.8125 C-104.00854736 79.55911865 -103.26709473 79.3057373 -102.50317383 79.04467773 C-87.35385448 74.00805935 -87.35385448 74.00805935 -81 76 C-81.55945313 76.15855469 -82.11890625 76.31710938 -82.6953125 76.48046875 C-85.4738786 77.28902255 -88.23697007 78.13977898 -91 79 C-92.18980469 79.36351562 -93.37960938 79.72703125 -94.60546875 80.1015625 C-103.81927439 83.02857372 -103.81927439 83.02857372 -110 90 C-111.61707958 93.23415916 -111.56822376 96.50375265 -111 100 C-109.2301177 103.1866503 -109.2301177 103.1866503 -106 105 C-101.18990463 106.01596407 -97.3029066 105.46988193 -93.0625 103 C-91.5465625 102.01 -91.5465625 102.01 -90 101 C-89.34 101 -88.68 101 -88 101 C-87.72414062 100.40703125 -87.44828125 99.8140625 -87.1640625 99.203125 C-86.06071174 97.1149041 -84.88409808 95.55417312 -83.375 93.75 C-77.69536736 86.29203578 -74.00463831 77.36703699 -70.09765625 68.88671875 C-65.25037017 58.37637773 -59.86244015 48.26394726 -54.19970703 38.17041016 C-52.67670805 35.41512711 -51.25001697 32.61311208 -49.8125 29.8125 C-42.40703197 16.2747103 -29.27452672 7.12093383 -14.96484375 1.890625 C-9.86802271 0.40434431 -5.29896771 -0.35326451 0 0 Z " fill="#0C0B0B" transform="translate(128,146)"/>
<path d="M0 0 C1.48831242 0.00667405 2.97660807 0.01863442 4.46484375 0.03515625 C5.22345703 0.03966797 5.98207031 0.04417969 6.76367188 0.04882812 C8.64326246 0.06064945 10.52281274 0.07858547 12.40234375 0.09765625 C12.07234375 1.08765625 11.74234375 2.07765625 11.40234375 3.09765625 C11.17908561 5.15659246 10.99528616 7.21999278 10.83984375 9.28515625 C10.75605469 10.37183594 10.67226563 11.45851562 10.5859375 12.578125 C10.52535156 13.40957031 10.46476562 14.24101562 10.40234375 15.09765625 C14.03234375 15.09765625 17.66234375 15.09765625 21.40234375 15.09765625 C21.26113661 13.1598136 21.11421502 11.2223867 20.96484375 9.28515625 C20.88363281 8.20621094 20.80242187 7.12726563 20.71875 6.015625 C20.50021914 3.0377572 20.50021914 3.0377572 19.40234375 0.09765625 C24.68234375 0.09765625 29.96234375 0.09765625 35.40234375 0.09765625 C35.40234375 1.08765625 35.40234375 2.07765625 35.40234375 3.09765625 C35.07234375 3.42765625 34.74234375 3.75765625 34.40234375 4.09765625 C34.30243469 6.05003001 34.27153498 8.00601011 34.26953125 9.9609375 C34.26824219 11.15783203 34.26695312 12.35472656 34.265625 13.58789062 C34.27142578 15.47991211 34.27142578 15.47991211 34.27734375 17.41015625 C34.27347656 18.65990234 34.26960938 19.90964844 34.265625 21.19726562 C34.26755859 22.9984082 34.26755859 22.9984082 34.26953125 24.8359375 C34.27122314 26.491698 34.27122314 26.491698 34.27294922 28.1809082 C34.31478056 31.31209126 34.31478056 31.31209126 35.40234375 35.09765625 C30.12234375 35.09765625 24.84234375 35.09765625 19.40234375 35.09765625 C19.73234375 34.10765625 20.06234375 33.11765625 20.40234375 32.09765625 C20.62685833 29.8719129 20.81017253 27.64184106 20.96484375 25.41015625 C21.04863281 24.23066406 21.13242187 23.05117187 21.21875 21.8359375 C21.30962891 20.48048828 21.30962891 20.48048828 21.40234375 19.09765625 C17.77234375 19.09765625 14.14234375 19.09765625 10.40234375 19.09765625 C10.54344361 21.20214563 10.6903855 23.30624395 10.83984375 25.41015625 C10.92105469 26.58191406 11.00226563 27.75367188 11.0859375 28.9609375 C11.28908085 32.12356583 11.28908085 32.12356583 12.40234375 35.09765625 C6.79234375 35.09765625 1.18234375 35.09765625 -4.59765625 35.09765625 C-4.26765625 34.10765625 -3.93765625 33.11765625 -3.59765625 32.09765625 C-2.93765625 32.09765625 -2.27765625 32.09765625 -1.59765625 32.09765625 C-1.69129236 28.16455891 -1.7974077 24.2320154 -1.91503906 20.29956055 C-1.97209717 18.30470265 -2.01930067 16.30957085 -2.06640625 14.31445312 C-2.10507812 13.06083984 -2.14375 11.80722656 -2.18359375 10.515625 C-2.21501465 9.35828857 -2.24643555 8.20095215 -2.27880859 7.00854492 C-2.39236658 3.90638597 -2.39236658 3.90638597 -4.59765625 1.09765625 C-3.59765625 0.09765625 -3.59765625 0.09765625 0 0 Z " fill="#0C0C0C" transform="translate(337.59765625,183.90234375)"/>
<path d="M0 0 C1.14662109 -0.02513672 1.14662109 -0.02513672 2.31640625 -0.05078125 C4.91647923 0.39453512 5.78581388 1.31253502 7.4375 3.3125 C7.953125 2.8175 8.46875 2.3225 9 1.8125 C12.31582303 -0.22800648 14.60441031 -0.02974015 18.4375 0.3125 C20.875 1.3125 20.875 1.3125 22.4375 2.3125 C22.4375 2.9725 22.4375 3.6325 22.4375 4.3125 C23.283125 3.6525 24.12875 2.9925 25 2.3125 C28.93807282 0.02125763 30.95830923 -0.18518786 35.4375 0.3125 C38.19892665 1.32986771 39.11835371 1.67420741 40.4375 4.3125 C40.64507376 6.96194847 40.81148372 9.59665723 40.9375 12.25 C41.16596375 17.8610196 41.16596375 17.8610196 42.4375 23.3125 C40.64616022 23.36641993 38.85436101 23.40525571 37.0625 23.4375 C36.06476563 23.46070313 35.06703125 23.48390625 34.0390625 23.5078125 C31.4375 23.3125 31.4375 23.3125 29.4375 21.3125 C29.13150937 18.74333343 28.92662913 16.26491616 28.8125 13.6875 C28.75449219 12.62789062 28.75449219 12.62789062 28.6953125 11.546875 C28.60102276 9.80251476 28.51817109 8.05754309 28.4375 6.3125 C27.4475 5.9825 26.4575 5.6525 25.4375 5.3125 C24.36322529 8.53532413 24.3042037 10.92761153 24.3125 14.3125 C24.30992187 15.364375 24.30734375 16.41625 24.3046875 17.5 C24.31396365 20.39376878 24.31396365 20.39376878 25.4375 23.3125 C23.64656809 23.39336147 21.85460372 23.45162702 20.0625 23.5 C18.56589844 23.55220703 18.56589844 23.55220703 17.0390625 23.60546875 C16.18054688 23.50878906 15.32203125 23.41210938 14.4375 23.3125 C11.98358431 19.63162647 12.20947241 16.86894412 12.3125 12.625 C12.32152344 11.92310547 12.33054687 11.22121094 12.33984375 10.49804688 C12.36336296 8.76938475 12.39923287 7.04089855 12.4375 5.3125 C9.85790734 6.42492301 9.85790734 6.42492301 7.4375 8.3125 C6.7953528 10.90711241 6.7953528 10.90711241 7.0625 13.75 C7.11277344 15.17119141 7.11277344 15.17119141 7.1640625 16.62109375 C7.3976043 19.55875025 7.3976043 19.55875025 8.4375 23.3125 C3.4875 23.3125 -1.4625 23.3125 -6.5625 23.3125 C-6.2325 22.3225 -5.9025 21.3325 -5.5625 20.3125 C-5.33452438 17.57960707 -5.14581813 14.86207796 -5 12.125 C-4.95681641 11.37541016 -4.91363281 10.62582031 -4.86914062 9.85351562 C-4.76327315 8.00671625 -4.6624024 6.15963166 -4.5625 4.3125 C-5.8825 4.3125 -7.2025 4.3125 -8.5625 4.3125 C-8.5625 3.6525 -8.5625 2.9925 -8.5625 2.3125 C-5.60294139 0.62036057 -3.40550083 0.01728681 0 0 Z " fill="#080808" transform="translate(244.5625,195.6875)"/>
<path d="M0 0 C5.28 0 10.56 0 16 0 C16 0.99 16 1.98 16 3 C15.34 3 14.68 3 14 3 C14.01571045 3.73114014 14.0314209 4.46228027 14.04760742 5.21557617 C14.11010351 8.5394716 14.14903752 11.8632432 14.1875 15.1875 C14.21263672 16.33798828 14.23777344 17.48847656 14.26367188 18.67382812 C14.27333984 19.78564453 14.28300781 20.89746094 14.29296875 22.04296875 C14.3086792 23.06414795 14.32438965 24.08532715 14.34057617 25.13745117 C13.94158942 28.49094199 13.01735285 30.31048921 11 33 C6.15356359 35.75581678 1.52767497 36.95449416 -4 36 C-7.75692771 34.70793491 -11.08478925 33.50165647 -13.20703125 30.01953125 C-14.20451308 27.47914649 -14.34702937 25.7068291 -14 23 C-12.875 21.1875 -12.875 21.1875 -11 20 C-5.87799791 19.35974974 -5.87799791 19.35974974 -3.35546875 21.19921875 C-1.58150861 23.55597848 -1.50225985 25.26519827 -1.3125 28.1875 C-1.21388672 29.53908203 -1.21388672 29.53908203 -1.11328125 30.91796875 C-1.07589844 31.60503906 -1.03851563 32.29210937 -1 33 C-0.01 32.505 -0.01 32.505 1 32 C1.33 22.43 1.66 12.86 2 3 C1.34 3 0.68 3 0 3 C0 2.01 0 1.02 0 0 Z " fill="#090909" transform="translate(200,184)"/>
<path d="M0 0 C0.78246094 -0.02578125 1.56492187 -0.0515625 2.37109375 -0.078125 C5.04181509 0.32176911 5.88227439 1.19699122 7.5625 3.25 C8.0575 2.755 8.5525 2.26 9.0625 1.75 C12.47310453 -0.29636272 15.66649308 -0.52615763 19.5625 0.25 C21.796875 1.23046875 21.796875 1.23046875 23.5625 3.25 C24.05961129 6.15856419 23.93789957 8.99784468 23.8125 11.9375 C23.79445313 12.73478516 23.77640625 13.53207031 23.7578125 14.35351562 C23.71072247 16.31952449 23.63897899 18.28491494 23.5625 20.25 C24.2225 20.25 24.8825 20.25 25.5625 20.25 C25.5625 21.24 25.5625 22.23 25.5625 23.25 C23.77156809 23.33086147 21.97960372 23.38912702 20.1875 23.4375 C18.69089844 23.48970703 18.69089844 23.48970703 17.1640625 23.54296875 C16.30554688 23.44628906 15.44703125 23.34960938 14.5625 23.25 C12.10858431 19.56912647 12.33447241 16.80644412 12.4375 12.5625 C12.44652344 11.86060547 12.45554687 11.15871094 12.46484375 10.43554688 C12.48836296 8.70688475 12.52423287 6.97839855 12.5625 5.25 C9.98619227 6.36355058 9.98619227 6.36355058 7.5625 8.25 C6.88312927 10.84169307 6.88312927 10.84169307 7.125 13.6875 C7.14691406 14.63496094 7.16882813 15.58242187 7.19140625 16.55859375 C7.46180377 19.58336345 7.46180377 19.58336345 9.5625 23.25 C4.2825 23.25 -0.9975 23.25 -6.4375 23.25 C-5.7775 21.93 -5.1175 20.61 -4.4375 19.25 C-4.14335235 16.6415208 -3.93112383 14.11466689 -3.8125 11.5 C-3.77382813 10.80261719 -3.73515625 10.10523438 -3.6953125 9.38671875 C-3.60151376 7.67489182 -3.51843826 5.96248318 -3.4375 4.25 C-4.7575 4.25 -6.0775 4.25 -7.4375 4.25 C-7.1075 3.26 -6.7775 2.27 -6.4375 1.25 C-4.11063547 0.08656773 -2.59028587 0.05104012 0 0 Z " fill="#070707" transform="translate(411.4375,195.75)"/>
<path d="M0 0 C3.3020291 1.62204938 5.17219129 2.90879761 7.375 5.8125 C8.59875016 10.09562557 8.59895652 13.68229565 6.75 17.75 C4.17423499 21.06169787 1.97659717 22.67446761 -2 24 C-8.1188126 24.50154202 -11.10653554 24.07788705 -16 20 C-18.96266844 15.55599734 -18.76945894 11.21098923 -18 6 C-12.98759247 -0.59527307 -7.85178934 -0.80843529 0 0 Z " fill="#0A0A0A" transform="translate(394,196)"/>
<path d="M0 0 C-2.8997642 2.8997642 -6.35318168 2.95849252 -10.25 3.6875 C-23.67089651 6.44920557 -34.7751611 11.87205624 -44 22.25 C-45.64935997 26.78573991 -45.63677113 31.24251453 -45 36 C-43.72482126 38.85998345 -43.72482126 38.85998345 -41 40 C-36.00305572 40.644767 -34.01845871 40.58467074 -29.625 38.0625 C-28.325625 37.0415625 -28.325625 37.0415625 -27 36 C-26.01 35.505 -26.01 35.505 -25 35 C-26.39197329 38.38256721 -27.8025496 39.83688682 -30.9375 41.6875 C-31.62714844 42.10386719 -32.31679688 42.52023438 -33.02734375 42.94921875 C-37.76392515 45.47226904 -42.82457862 45.85516299 -47.97265625 44.46875 C-51.70768069 43.00963217 -54.27206344 41.64786606 -56 38 C-57.0543269 33.68384925 -57.39007423 30.19460233 -56 25.9375 C-45.28989475 10.20703291 -28.62704831 4.02213363 -10.5078125 0.48046875 C-6.95866572 -0.0056616 -3.57750665 -0.08692152 0 0 Z " fill="#181616" transform="translate(92,151)"/>
<path d="M0 0 C5.28 0 10.56 0 16 0 C15.67 1.65 15.34 3.3 15 5 C15.71956574 7.48895199 15.71956574 7.48895199 16.9375 9.8125 C17.31777344 10.60269531 17.69804687 11.39289063 18.08984375 12.20703125 C18.39019531 12.79871094 18.69054687 13.39039063 19 14 C22.24900602 9.02495953 23.49940808 6.11774896 23 0 C25.64 0 28.28 0 31 0 C30.25556641 1.48886719 30.25556641 1.48886719 29.49609375 3.0078125 C29.17092773 3.65854736 28.84576172 4.30928223 28.51074219 4.97973633 C27.79003625 6.42032847 27.06801181 7.86026168 26.34472656 9.29956055 C24.54909623 12.87705103 22.77145613 16.46000367 21.05078125 20.07421875 C20.74664307 20.70505371 20.44250488 21.33588867 20.12915039 21.98583984 C19.29303938 23.72307467 18.4665656 25.46493808 17.640625 27.20703125 C15.98121512 30.03197902 14.84386287 31.42067921 12 33 C8.26139715 33.74479979 4.96573323 33.43457996 1.5 31.875 C-0.60705132 29.24118585 -0.29101222 27.27388743 0 24 C5.75 22.875 5.75 22.875 8 24 C8.625 26.5625 8.625 26.5625 9 29 C9.99 29.33 10.98 29.66 12 30 C10.84628693 23.55305893 8.90409863 18.0430467 6 12.1875 C5.64421875 11.45080078 5.2884375 10.71410156 4.921875 9.95507812 C3.30841916 6.62281018 1.65575788 3.31151575 0 0 Z " fill="#070707" transform="translate(467,197)"/>
<path d="M0 0 C2.74330437 2.83474784 2.875 5.06321206 2.875 8.9375 C1.14493865 11.57811995 -1.2264069 12.77806276 -4.125 13.9375 C-6.11610401 14.32040462 -8.11600513 14.66354615 -10.125 14.9375 C-8.16866025 17.34871859 -8.16866025 17.34871859 -4.5 17.0625 C-3.38625 17.02125 -2.2725 16.98 -1.125 16.9375 C-0.465 15.6175 0.195 14.2975 0.875 12.9375 C1.865 12.9375 2.855 12.9375 3.875 12.9375 C3.59713854 16.27183748 3.14804237 17.66142943 0.76171875 20.07421875 C-4.40731202 23.41065675 -10.19518876 22.77348295 -16.125 21.9375 C-19.6661419 20.11475113 -20.87253439 17.69489683 -22.125 13.9375 C-22.69468464 6.87341048 -22.69468464 6.87341048 -20.375 3.0625 C-14.68799656 -2.30855881 -7.22919029 -2.4579247 0 0 Z " fill="#0C0C0C" transform="translate(461.125,197.0625)"/>
<path d="M0 0 C1.65515625 0.00193359 1.65515625 0.00193359 3.34375 0.00390625 C6.82946676 0.4827609 8.78473654 1.20348659 11.5 3.4375 C11.5 4.7575 11.5 6.0775 11.5 7.4375 C9.25 7.6875 9.25 7.6875 6.5 7.4375 C5.14631404 6.12483482 3.81200404 4.79182675 2.5 3.4375 C1.18 3.4375 -0.14 3.4375 -1.5 3.4375 C-1.17 4.4275 -0.84 5.4175 -0.5 6.4375 C1.95697034 7.57932251 1.95697034 7.57932251 4.875 8.4375 C11.36543041 10.49251754 11.36543041 10.49251754 13.5 13.4375 C13.5625 16.875 13.5625 16.875 12.5 20.4375 C9.13897407 23.79852593 6.25005036 24.7165808 1.625 24.9375 C-3.58865644 24.74791249 -7.05036825 23.07431881 -11.5 20.4375 C-11.5 18.7875 -11.5 17.1375 -11.5 15.4375 C-10.18 15.1075 -8.86 14.7775 -7.5 14.4375 C-6.984375 15.241875 -6.46875 16.04625 -5.9375 16.875 C-2.86794243 20.10197078 -0.85131541 20.18646257 3.5 20.4375 C1.23950084 17.94515477 -1.02350426 16.48527778 -4 14.9375 C-6.95542434 13.40067934 -9.34836082 12.01274314 -11.5 9.4375 C-12 7 -12 7 -11.5 4.4375 C-7.76673325 0.690508 -5.23557236 -0.09174484 0 0 Z " fill="#090909" transform="translate(300.5,195.5625)"/>
<path d="M0 0 C-0.55945312 0.15855469 -1.11890625 0.31710938 -1.6953125 0.48046875 C-4.4738786 1.28902255 -7.23697007 2.13977898 -10 3 C-11.78470703 3.54527344 -11.78470703 3.54527344 -13.60546875 4.1015625 C-22.81927439 7.02857372 -22.81927439 7.02857372 -29 14 C-30.61707958 17.23415916 -30.56822376 20.50375265 -30 24 C-28.2301177 27.1866503 -28.2301177 27.1866503 -25 29 C-20.18990463 30.01596407 -16.3029066 29.46988193 -12.0625 27 C-10.5465625 26.01 -10.5465625 26.01 -9 25 C-8.34 25 -7.68 25 -7 25 C-6.505 23.515 -6.505 23.515 -6 22 C-5.34 23.32 -4.68 24.64 -4 26 C-11.50142098 31.48884462 -18.78123913 32.84041999 -28 32 C-32.30626678 31.10204178 -35.85143358 29.77528233 -39.5 27.3125 C-41.660069 23.98239362 -42.18156859 20.94714325 -42 17 C-40.00287975 11.63273933 -35.05857823 8.43793777 -30.01367188 6.06616211 C-27.94209883 5.25293511 -25.8614165 4.51566531 -23.75 3.8125 C-23.00854736 3.55911865 -22.26709473 3.3057373 -21.50317383 3.04467773 C-6.35385448 -1.99194065 -6.35385448 -1.99194065 0 0 Z " fill="#131211" transform="translate(47,222)"/>
<path d="M0 0 C1.97909398 -0.02686553 3.95828971 -0.04633375 5.9375 -0.0625 C7.03964844 -0.07410156 8.14179688 -0.08570313 9.27734375 -0.09765625 C12 0 12 0 13 1 C13.21199227 3.96200312 13.37661226 6.90912442 13.5 9.875 C13.56900738 11.51839798 13.64177379 13.1616435 13.71875 14.8046875 C13.74904297 15.53671387 13.77933594 16.26874023 13.81054688 17.02294922 C13.94559746 19.21061184 13.94559746 19.21061184 15 22 C10.05 22 5.1 22 0 22 C0.33 21.01 0.66 20.02 1 19 C1.22718496 16.43365139 1.41608184 13.88321893 1.5625 11.3125 C1.60568359 10.61060547 1.64886719 9.90871094 1.69335938 9.18554688 C1.7991736 7.45724794 1.90006581 5.7286489 2 4 C0.68 4 -0.64 4 -2 4 C-1.34 2.68 -0.68 1.36 0 0 Z " fill="#070707" transform="translate(220,197)"/>
<path d="M0 0 C3.58384341 0.50173808 5.40681891 1.02996817 8.125 3.4375 C9.125 6.9375 9.125 6.9375 9.125 10.4375 C7.9375 12.25 7.9375 12.25 6.125 13.4375 C5.5475 13.829375 4.97 14.22125 4.375 14.625 C1.25540915 15.75151892 -1.58897563 15.56388555 -4.875 15.4375 C-4.215 15.1075 -3.555 14.7775 -2.875 14.4375 C-2.875 13.7775 -2.875 13.1175 -2.875 12.4375 C-3.865 12.4375 -4.855 12.4375 -5.875 12.4375 C-6.235 5.2375 -6.235 5.2375 -4.75 1.9375 C-2.875 0.4375 -2.875 0.4375 0 0 Z " fill="#111111" transform="translate(454.875,195.5625)"/>
<path d="M0 0 C1.32 0 2.64 0 4 0 C2.15290757 4.37829317 -0.93708858 6.87879046 -4.41796875 10 C-6.25194145 11.85424534 -6.25194145 11.85424534 -5.83984375 14.12109375 C-5.03369646 16.1300962 -5.03369646 16.1300962 -3.375 18.0625 C-2.92125 18.701875 -2.4675 19.34125 -2 20 C-2.33 20.99 -2.66 21.98 -3 23 C-4.65 20.69 -6.3 18.38 -8 16 C-11.50322946 17.16774315 -12.02031663 18.10107296 -14.0625 21.0625 C-15.59765625 23.28515625 -15.59765625 23.28515625 -17 25 C-17.66 25 -18.32 25 -19 25 C-18.84064206 22.29091502 -18.52673698 20.52101158 -16.5625 18.578125 C-16.005625 18.09859375 -15.44875 17.6190625 -14.875 17.125 C-13.2179636 15.67029258 -13.2179636 15.67029258 -12 14 C-11.91666667 10.41666667 -11.91666667 10.41666667 -13 7 C-13.185625 6.030625 -13.37125 5.06125 -13.5625 4.0625 C-13.706875 3.381875 -13.85125 2.70125 -14 2 C-13.34 2 -12.68 2 -12 2 C-11.54625 3.134375 -11.0925 4.26875 -10.625 5.4375 C-9.42904194 9.04721692 -9.42904194 9.04721692 -7 10 C-6.773125 9.46375 -6.54625 8.9275 -6.3125 8.375 C-4.51522889 5.12279514 -2.5780219 2.70078485 0 0 Z " fill="#3E3A3A" transform="translate(177,186)"/>
<path d="M0 0 C2.45862401 -0.05383848 4.9160755 -0.09359038 7.375 -0.125 C8.42300781 -0.15013672 8.42300781 -0.15013672 9.4921875 -0.17578125 C11.32897486 -0.19344267 13.16601963 -0.10303261 15 0 C17 2 17 2 17.1875 5.5625 C17 9 17 9 16 10 C13.14105832 10.53605157 11.75491717 10.72551226 9 10 C5.65404097 7.67214578 2.70298846 5.05235432 0 2 C0 1.34 0 0.68 0 0 Z " fill="#0D0C0C" transform="translate(137,154)"/>
<path d="M0 0 C1.20462891 -0.02126953 1.20462891 -0.02126953 2.43359375 -0.04296875 C4.5625 0.1875 4.5625 0.1875 6.5625 2.1875 C6.9375 4.625 6.9375 4.625 6.5625 7.1875 C5 9.0625 5 9.0625 2.5625 10.1875 C-3.87386364 9.75113636 -3.87386364 9.75113636 -5.4375 8.1875 C-5.5625 4.6875 -5.5625 4.6875 -5.4375 1.1875 C-3.84855928 -0.40144072 -2.18948576 0.01751589 0 0 Z " fill="#0D0D0D" transform="translate(226.4375,182.8125)"/>
<path d="M0 0 C0.66 0 1.32 0 2 0 C2.33 0.99 2.66 1.98 3 3 C3.391875 2.484375 3.78375 1.96875 4.1875 1.4375 C4.785625 0.963125 5.38375 0.48875 6 0 C8.6875 0.3125 8.6875 0.3125 11 1 C10.01 1.495 10.01 1.495 9 2 C8.34 1.67 7.68 1.34 7 1 C7.33 1.99 7.66 2.98 8 4 C8.99 4.33 9.98 4.66 11 5 C10.67 6.65 10.34 8.3 10 10 C5.25 11.125 5.25 11.125 3 10 C1.68 10 0.36 10 -1 10 C-1.02689216 8.52093108 -1.04634621 7.04172517 -1.0625 5.5625 C-1.07410156 4.73878906 -1.08570312 3.91507813 -1.09765625 3.06640625 C-1 1 -1 1 0 0 Z " fill="#EBEAEA" transform="translate(78,241)"/>
<path d="M0 0 C2.0625 0.4375 2.0625 0.4375 4 1 C5.59162079 6.57067277 6.20674944 11.21101581 6 17 C4.68 17.33 3.36 17.66 2 18 C-1.54216867 6.15060241 -1.54216867 6.15060241 -1 1 C-0.67 0.67 -0.34 0.34 0 0 Z " fill="#E4E4E4" transform="translate(386,199)"/>
<path d="M0 0 C-2.91000585 2.91000585 -6.40173821 3.00501703 -10.3125 3.75 C-18.55735248 5.42776047 -25.53760445 8.04466667 -33 12 C-33 11.01 -33 10.02 -33 9 C-33.66 8.67 -34.32 8.34 -35 8 C-23.67746476 3.16930621 -12.44443935 -0.3023585 0 0 Z " fill="#4D4948" transform="translate(92,151)"/>
<path d="M0 0 C-1 3 -1 3 -3 4 C-5.0407153 4.10405914 -7.08271051 4.18366113 -9.125 4.25 C-17.00398738 4.79037303 -21.60900769 7.4129716 -27 13 C-27.33 12.34 -27.66 11.68 -28 11 C-29.65 11.33 -31.3 11.66 -33 12 C-23.49489202 4.58998543 -12.26132438 -0.81742163 0 0 Z " fill="#585453" transform="translate(128,146)"/>
<path d="M0 0 C3.29714793 0.32971479 4.6226839 0.6226839 7 3 C6.54545455 8.45454545 6.54545455 8.45454545 4 11 C-0.55555556 10.44444444 -0.55555556 10.44444444 -2 9 C-2.1875 5.5625 -2.1875 5.5625 -2 2 C-1.34 1.34 -0.68 0.68 0 0 Z " fill="#E6E5E5" transform="translate(112,241)"/>
<path d="M0 0 C3.1323445 0.22373889 4.05671496 1.05986579 6.25 3.375 C9.69328554 6.66177256 12.50322384 7.55188564 17 9 C17 9.33 17 9.66 17 10 C9.75460274 10.53449652 5.27087737 9.71607548 -1 6 C-1.042721 4.33388095 -1.04063832 2.66617115 -1 1 C-0.67 0.67 -0.34 0.34 0 0 Z " fill="#1E1E1E" transform="translate(290,210)"/>
<path d="M0 0 C0.66 0.66 1.32 1.32 2 2 C-2.29 2 -6.58 2 -11 2 C-10.67 2.99 -10.34 3.98 -10 5 C-11.546875 5.0928125 -11.546875 5.0928125 -13.125 5.1875 C-17.88462827 6.18548657 -19.53592963 7.70490867 -23 11 C-23 10.34 -23 9.68 -23 9 C-23.99 8.67 -24.98 8.34 -26 8 C-17.61285542 2.43191654 -10.2517667 -0.83687891 0 0 Z " fill="#3C3938" transform="translate(148,152)"/>
<path d="M0 0 C0.66 1.32 1.32 2.64 2 4 C-5.57898609 9.54559958 -12.7214257 10.58846415 -22 10 C-23.6726613 9.69818371 -25.3420069 9.37409592 -27 9 C-27 8.67 -27 8.34 -27 8 C-25.35 8 -23.7 8 -22 8 C-22 7.34 -22 6.68 -22 6 C-21.01 6.33 -20.02 6.66 -19 7 C-12.36000017 7.78496122 -8.54270779 6.61972753 -3 3 C-2.34 3 -1.68 3 -1 3 C-0.67 2.01 -0.34 1.02 0 0 Z " fill="#433F3D" transform="translate(41,244)"/>
<path d="M0 0 C2.64 0 5.28 0 8 0 C6.93351771 2.32169599 5.84835973 4.63094457 4.75 6.9375 C4.44964844 7.59685547 4.14929688 8.25621094 3.83984375 8.93554688 C1.50008614 13.78929937 1.50008614 13.78929937 -1.234375 14.94140625 C-1.81703125 14.96074219 -2.3996875 14.98007813 -3 15 C-2.690625 14.154375 -2.38125 13.30875 -2.0625 12.4375 C-0.79792353 8.34622319 0 4.2957915 0 0 Z " fill="#121212" transform="translate(490,197)"/>
<path d="M0 0 C0.33 0.66 0.66 1.32 1 2 C-0.11103366 4.29432968 -1.26755192 6.43724926 -2.5625 8.625 C-2.93165527 9.25656006 -3.30081055 9.88812012 -3.68115234 10.53881836 C-7.96836508 17.7736059 -12.26526671 23.86877464 -19 29 C-19.99 28.34 -20.98 27.68 -22 27 C-20.7315625 26.5359375 -20.7315625 26.5359375 -19.4375 26.0625 C-10.20851933 21.34019447 -5.02233019 8.64387441 0 0 Z " fill="#7E7B79" transform="translate(132,204)"/>
<path d="M0 0 C1.67542976 0.28604898 3.34385343 0.61781233 5 1 C5.04241723 3.33294775 5.04092937 5.66702567 5 8 C4 9 4 9 1.4375 9.0625 C0.633125 9.041875 -0.17125 9.02125 -1 9 C-1.09765625 2.84765625 -1.09765625 2.84765625 -1 1 C-0.67 0.67 -0.34 0.34 0 0 Z " fill="#F5F5F5" transform="translate(450,199)"/>
<path d="M0 0 C0.66 0.33 1.32 0.66 2 1 C-2.46351289 6.22325977 -7.0744893 11.20922972 -12 16 C-12.99 15.67 -13.98 15.34 -15 15 C-10 10 -5 5 0 0 Z " fill="#23201E" transform="translate(119,162)"/>
<path d="M0 0 C-3.32812366 1.01792936 -6.66245775 2.01340296 -10 3 C-10.95777344 3.28617188 -11.91554688 3.57234375 -12.90234375 3.8671875 C-17.70565871 5.25085848 -21.9446516 6.40989311 -27 6 C-23.72120119 3.81413413 -20.97353743 2.99791304 -17.1875 1.9375 C-15.98480469 1.59589844 -14.78210938 1.25429687 -13.54296875 0.90234375 C-4.23883125 -1.46728774 -4.23883125 -1.46728774 0 0 Z " fill="#706C6A" transform="translate(47,222)"/>
<path d="M0 0 C1.32 0 2.64 0 4 0 C3.125 4.875 3.125 4.875 2 6 C-1.375 6.3125 -1.375 6.3125 -5 6 C-6.9375 4 -6.9375 4 -8 2 C-6.865625 1.855625 -5.73125 1.71125 -4.5625 1.5625 C-1.19222799 1.38828522 -1.19222799 1.38828522 0 0 Z " fill="#F4F4F4" transform="translate(458,209)"/>
<path d="M0 0 C-1.33333333 0.66666667 -2.66666667 1.33333333 -4 2 C-4.84111328 2.52207031 -4.84111328 2.52207031 -5.69921875 3.0546875 C-8.87909514 4.36119019 -11.63654318 4.26440991 -15.0625 4.25 C-16.29097656 4.25515625 -17.51945312 4.2603125 -18.78515625 4.265625 C-22 4 -22 4 -25 2 C-22.33397504 1.66068773 -19.66736986 1.32842824 -17 1 C-15.88431641 0.85691406 -15.88431641 0.85691406 -14.74609375 0.7109375 C-9.79111949 0.10772324 -4.99157504 -0.09075591 0 0 Z " fill="#B3B0AF" transform="translate(114,148)"/>
<path d="M0 0 C4.43090471 1.20842856 6.98112756 2.51668565 10 6 C9.67 6.33 9.34 6.66 9 7 C5.625 6.875 5.625 6.875 2 6 C0.0625 3.4375 0.0625 3.4375 -1 1 C-0.67 0.67 -0.34 0.34 0 0 Z " fill="#EEEEEE" transform="translate(295,210)"/>
<path d="M0 0 C3.79918838 0.51340384 5.43134786 1.2079868 8 4 C10.09989652 5.17574711 10.09989652 5.17574711 12 6 C7.06729471 7.6442351 4.45975807 6.18615592 0 4 C0 2.68 0 1.36 0 0 Z " fill="#E1E1E1" transform="translate(299,198)"/>
<path d="M0 0 C-1.38188453 3.21043882 -2.92421903 5.04936365 -5.625 7.25 C-6.57246094 8.03117188 -6.57246094 8.03117188 -7.5390625 8.828125 C-8.02117187 9.21484375 -8.50328125 9.6015625 -9 10 C-9.66 9.34 -10.32 8.68 -11 8 C-9.93119777 6.65499045 -8.84437492 5.32428562 -7.75 4 C-7.14671875 3.2575 -6.5434375 2.515 -5.921875 1.75 C-4 0 -4 0 0 0 Z " fill="#474240" transform="translate(181,186)"/>
<path d="M0 0 C0.66 0 1.32 0 2 0 C2.33 2.64 2.66 5.28 3 8 C3 7.01 3 6.02 3 5 C3.99 4.67 4.98 4.34 6 4 C6.38218767 5.65614657 6.71395102 7.32457024 7 9 C6 10 6 10 2.9375 10.0625 C1.968125 10.041875 0.99875 10.02125 0 10 C0 6.7 0 3.4 0 0 Z " fill="#7D7A79" transform="translate(132,242)"/>
<path d="M0 0 C2.12472576 -0.05386629 4.24983652 -0.09273071 6.375 -0.125 C7.55835937 -0.14820313 8.74171875 -0.17140625 9.9609375 -0.1953125 C13 0 13 0 15 2 C11.32612505 2.85298376 7.9552607 3.10789471 4.1875 3.0625 C2.72376953 3.04896484 2.72376953 3.04896484 1.23046875 3.03515625 C0.12638672 3.01775391 0.12638672 3.01775391 -1 3 C-0.67 2.01 -0.34 1.02 0 0 Z " fill="#777372" transform="translate(79,198)"/>
<path d="M0 0 C-0.2475 0.886875 -0.495 1.77375 -0.75 2.6875 C-1.37255622 6.11259467 -1.37255622 6.11259467 1 8.6875 C1.99 9.8321875 1.99 9.8321875 3 11 C2.67 11.99 2.34 12.98 2 14 C1.16094435 12.87926138 0.32892169 11.75325453 -0.5 10.625 C-1.19609375 9.68527344 -1.19609375 9.68527344 -1.90625 8.7265625 C-3 7 -3 7 -3 5 C-3.66 5 -4.32 5 -5 5 C-5 3.68 -5 2.36 -5 1 C-2 0 -2 0 0 0 Z " fill="#191516" transform="translate(172,195)"/>
<path d="M0 0 C0.99 0.33 1.98 0.66 3 1 C3 1.66 3 2.32 3 3 C3.99 3 4.98 3 6 3 C6.33 2.01 6.66 1.02 7 0 C7.33 0.66 7.66 1.32 8 2 C7.01 3.485 7.01 3.485 6 5 C5.61500109 6.65549531 5.27206865 8.3222433 5 10 C4.34 10 3.68 10 3 10 C0 3.375 0 3.375 0 0 Z " fill="#6A6564" transform="translate(140,241)"/>
<path d="M0 0 C0.99 0 1.98 0 3 0 C3.02698189 1.62490954 3.04638757 3.24994633 3.0625 4.875 C3.07410156 5.77992188 3.08570313 6.68484375 3.09765625 7.6171875 C3 10 3 10 2 12 C1.34 12 0.68 12 0 12 C0 8.04 0 4.08 0 0 Z " fill="#878280" transform="translate(58,241)"/>
<path d="M0 0 C0.99 0 1.98 0 3 0 C3 3.3 3 6.6 3 10 C2.01 10 1.02 10 0 10 C0 6.7 0 3.4 0 0 Z " fill="#63605C" transform="translate(104,241)"/>
<path d="M0 0 C0.99 0 1.98 0 3 0 C3 3.3 3 6.6 3 10 C2.01 10 1.02 10 0 10 C0 6.7 0 3.4 0 0 Z " fill="#5D5A57" transform="translate(64,241)"/>
<path d="M0 0 C0.66 0 1.32 0 2 0 C2 3.3 2 6.6 2 10 C1.01 10 0.02 10 -1 10 C-1.02689216 8.52093108 -1.04634621 7.04172517 -1.0625 5.5625 C-1.07410156 4.73878906 -1.08570312 3.91507813 -1.09765625 3.06640625 C-1 1 -1 1 0 0 Z " fill="#645D5D" transform="translate(99,241)"/>
<path d="M0 0 C1.65 0.33 3.3 0.66 5 1 C4.01 1.495 4.01 1.495 3 2 C2.34 1.67 1.68 1.34 1 1 C1.33 1.99 1.66 2.98 2 4 C2.99 4.33 3.98 4.66 5 5 C4.67 6.65 4.34 8.3 4 10 C3.67 9.01 3.34 8.02 3 7 C0.99983534 5.79117904 0.99983534 5.79117904 -1 5 C-0.67 3.35 -0.34 1.7 0 0 Z " fill="#54504E" transform="translate(84,241)"/>
<path d="M0 0 C0.66 0 1.32 0 2 0 C2 3.3 2 6.6 2 10 C1.01 10 0.02 10 -1 10 C-1.02689216 8.52093108 -1.04634621 7.04172517 -1.0625 5.5625 C-1.07410156 4.73878906 -1.08570312 3.91507813 -1.09765625 3.06640625 C-1 1 -1 1 0 0 Z " fill="#383330" transform="translate(78,241)"/>
<path d="M0 0 C-0.33 0.99 -0.66 1.98 -1 3 C-4.63 3 -8.26 3 -12 3 C-8.40198016 -0.59801984 -4.84291279 -0.09137571 0 0 Z " fill="#282523" transform="translate(128,146)"/>
<path d="M0 0 C1.98 0 3.96 0 6 0 C5.67 0.99 5.34 1.98 5 3 C4.34 2.67 3.68 2.34 3 2 C3.66 4.31 4.32 6.62 5 9 C4.01 9 3.02 9 2 9 C2 6.36 2 3.72 2 1 C1.34 0.67 0.68 0.34 0 0 Z " fill="#D3D1D1" transform="translate(132,241)"/>
<path d="M0 0 C2.5 2.25 2.5 2.25 5 5 C5 6.32 5 7.64 5 9 C4.34 9 3.68 9 3 9 C0.56839395 5.63316085 0 4.26649636 0 0 Z " fill="#393535" transform="translate(70,241)"/>
<path d="M0 0 C1.98 0.99 1.98 0.99 4 2 C3.67 3.98 3.34 5.96 3 8 C2.01 8 1.02 8 0 8 C0 5.36 0 2.72 0 0 Z " fill="#595653" transform="translate(115,242)"/>
<path d="M0 0 C0.33 0.99 0.66 1.98 1 3 C1.99 3.33 2.98 3.66 4 4 C2 6 2 6 -0.625 6.125 C-1.40875 6.08375 -2.1925 6.0425 -3 6 C-1.125 1.125 -1.125 1.125 0 0 Z " fill="#201C1A" transform="translate(44,241)"/>
<path d="M0 0 C0.99 0 1.98 0 3 0 C1.79618552 2.49361571 0.54571278 4.68143083 -1 7 C-1.66 7 -2.32 7 -3 7 C-2.25 2.25 -2.25 2.25 0 0 Z " fill="#383231" transform="translate(161,204)"/>
<path d="M0 0 C0.75 1.5625 0.75 1.5625 1 4 C-0.13084437 6.50286409 -1.52139516 8.67007722 -3 11 C-3.66 11 -4.32 11 -5 11 C-3.55049545 7.2089881 -1.84827434 3.6125362 0 0 Z " fill="#343331" transform="translate(65,201)"/>
<path d="M0 0 C0.66 0 1.32 0 2 0 C0.55746343 3.36591866 -1.33264727 5.51047079 -4 8 C-4.66 7.67 -5.32 7.34 -6 7 C-5.04882866 5.8274869 -4.08882991 4.66212985 -3.125 3.5 C-2.59132812 2.8503125 -2.05765625 2.200625 -1.5078125 1.53125 C-0.76144531 0.77328125 -0.76144531 0.77328125 0 0 Z " fill="#211D1C" transform="translate(45,166)"/>
<path d="M0 0 C-1.32 1.32 -2.64 2.64 -4 4 C-4.33 3.34 -4.66 2.68 -5 2 C-6.65 2.33 -8.3 2.66 -10 3 C-4.375 -1.3125 -4.375 -1.3125 0 0 Z " fill="#373434" transform="translate(105,155)"/>
<path d="M0 0 C2.88437779 1.29299694 4.87219421 2.65941363 7 5 C6.67 5.99 6.34 6.98 6 8 C4.99403703 7.0479279 3.99538437 6.08812654 3 5.125 C2.443125 4.59132812 1.88625 4.05765625 1.3125 3.5078125 C0 2 0 2 0 0 Z " fill="#413C3D" transform="translate(122,242)"/>
<path d="M0 0 C0 3 0 3 -1.53125 4.60546875 C-2.1809375 5.12753906 -2.830625 5.64960938 -3.5 6.1875 C-4.1496875 6.71730469 -4.799375 7.24710938 -5.46875 7.79296875 C-5.9740625 8.19128906 -6.479375 8.58960938 -7 9 C-7.99 8.34 -8.98 7.68 -10 7 C-9.0925 6.5875 -8.185 6.175 -7.25 5.75 C-4.20334382 4.10949282 -2.28873194 2.55281639 0 0 Z " fill="#4D4845" transform="translate(120,224)"/>
<path d="M0 0 C-7.28571429 3.57142857 -7.28571429 3.57142857 -12 2 C-7.93192322 -0.71205119 -4.69252613 -1.56417538 0 0 Z " fill="#3E3A39" transform="translate(74,156)"/>
<path d="M0 0 C0.66 0.33 1.32 0.66 2 1 C2 3.64 2 6.28 2 9 C1.01 8.67 0.02 8.34 -1 8 C-1.04241723 5.66705225 -1.04092937 3.33297433 -1 1 C-0.67 0.67 -0.34 0.34 0 0 Z " fill="#53504E" transform="translate(111,242)"/>
<path d="M0 0 C1.32 0 2.64 0 4 0 C3.75 1.875 3.75 1.875 3 4 C0.9375 5.25 0.9375 5.25 -1 6 C-0.67 4.02 -0.34 2.04 0 0 Z " fill="#1E1A18" transform="translate(55,160)"/>
<path d="M0 0 C1.485 0.99 1.485 0.99 3 2 C3.1875 5.125 3.1875 5.125 3 8 C2.01 8.33 1.02 8.66 0 9 C0 6.03 0 3.06 0 0 Z " fill="#D5D4D3" transform="translate(107,242)"/>
<path d="M0 0 C0.625 1.875 0.625 1.875 1 4 C-1 6 -1 6 -4 7 C-3.39816251 4.97954558 -2.72693904 2.97888961 -2 1 C-1.34 0.67 -0.68 0.34 0 0 Z " fill="#232323" transform="translate(491,205)"/>
<path d="M0 0 C0 1.32 0 2.64 0 4 C-1.65 3.67 -3.3 3.34 -5 3 C-5 2.34 -5 1.68 -5 1 C-3 0 -3 0 0 0 Z " fill="#C4C2C1" transform="translate(87,248)"/>
<path d="M0 0 C3.16115776 1.36983503 3.9927092 1.9890638 6 5 C5.67 5.99 5.34 6.98 5 8 C4.16382818 6.8562364 3.33113541 5.70992861 2.5 4.5625 C2.0359375 3.92441406 1.571875 3.28632813 1.09375 2.62890625 C0 1 0 1 0 0 Z " fill="#464140" transform="translate(169,201)"/>
<path d="M0 0 C1.32 0 2.64 0 4 0 C3.1875 1.9375 3.1875 1.9375 2 4 C1.01 4.33 0.02 4.66 -1 5 C-0.67 3.35 -0.34 1.7 0 0 Z " fill="#3A3332" transform="translate(177,186)"/>
</svg>
