<svg width="250" height="50" xmlns="http://www.w3.org/2000/svg" viewBox="-14.088922119140648 14.199996948242188 528.1778442382813 121.60000610351562" style="background: none;" preserveAspectRatio="xMidYMid"><defs><filter id="editing-jagged" x="-100%" y="-100%" width="300%" height="300%"><feTurbulence result="turb" baseFrequency="0.1" numOctaves="1" seed="1"></feTurbulence><feDisplacementMap in="SourceGraphic" in2="turb" scale="10"></feDisplacementMap></filter></defs><g filter="url(#editing-jagged)"><g transform="translate(69.18180894851685, 102.86999702453613)"><path d="M-6.98 8.83L-6.98 8.83L-6.98 8.83Q-3.71 8.45-1.66 4.22L-1.66 4.22L-1.66 4.22Q0.45-0.06 2.37-9.92L2.37-9.92L8.58-42.24L22.46-42.24L16.26-9.92L16.26-9.92Q13.89 2.62 9.98 7.55L9.98 7.55L9.98 7.55Q7.94 10.11 5.34 11.14L5.34 11.14L5.34 11.14Q2.75 12.16-0.06 12.16L-0.06 12.16L-0.06 12.16Q-2.88 12.16-4.70 11.14L-4.70 11.14L-4.70 11.14Q-6.53 10.11-6.98 8.83ZM37.12 0L23.17 0L31.30-42.24L45.38-42.24L37.12 0ZM52.22 0L44.86 0L56.45-42.24L69.82-42.24L72.77-18.11L84.67-42.24L95.87-42.24L97.02-10.62L97.02-10.62Q97.28-4.35 100.35-2.43L100.35-2.43L100.35-2.43Q99.65-1.15 97.60 0.06L97.60 0.06L97.60 0.06Q95.55 1.28 92.83 1.28L92.83 1.28L92.83 1.28Q90.11 1.28 88.51 0.51L88.51 0.51L88.51 0.51Q86.91-0.26 86.02-1.54L86.02-1.54L86.02-1.54Q84.42-3.84 84.42-8.26L84.42-8.26L84.42-28.03L71.81 0L63.87 0L59.39-28.74L52.22 0ZM128.06-29.57L128.06-29.57L128.06-29.57Q129.02-31.49 129.02-33.28L129.02-33.28L129.02-33.28Q129.02-35.07 128.83-36.06L128.83-36.06L128.83-36.06Q128.64-37.06 128.19-37.82L128.19-37.82L128.19-37.82Q127.23-39.49 125.31-39.49L125.31-39.49L125.31-39.49Q122.94-39.49 121.02-37.76L121.02-37.76L121.02-37.76Q118.98-35.97 118.98-33.15L118.98-33.15L118.98-33.15Q118.98-31.36 120.22-29.98L120.22-29.98L120.22-29.98Q121.47-28.61 123.39-27.33L123.39-27.33L123.39-27.33Q125.31-26.05 127.49-24.77L127.49-24.77L127.49-24.77Q129.66-23.49 131.58-21.95L131.58-21.95L131.58-21.95Q136-18.43 136-13.70L136-13.70L136-13.70Q136-10.50 134.30-7.78L134.30-7.78L134.30-7.78Q132.61-5.06 129.79-3.07L129.79-3.07L129.79-3.07Q123.65 1.28 115.52 1.28L115.52 1.28L115.52 1.28Q108.93 1.28 105.54-0.86L105.54-0.86L105.54-0.86Q102.14-3.01 102.14-6.27L102.14-6.27L102.14-6.27Q102.14-12.10 106.69-13.57L106.69-13.57L106.69-13.57Q107.97-14.02 109.92-14.02L109.92-14.02L109.92-14.02Q111.87-14.02 114.11-13.18L114.11-13.18L114.11-13.18Q113.09-10.56 113.09-8.19L113.09-8.19L113.09-8.19Q113.09-3.07 116.74-3.07L116.74-3.07L116.74-3.07Q119.10-3.07 121.06-4.80L121.06-4.80L121.06-4.80Q123.01-6.53 123.01-8.48L123.01-8.48L123.01-8.48Q123.01-10.43 121.76-11.84L121.76-11.84L121.76-11.84Q120.51-13.25 118.66-14.37L118.66-14.37L118.66-14.37Q116.80-15.49 114.66-16.58L114.66-16.58L114.66-16.58Q112.51-17.66 110.66-19.20L110.66-19.20L110.66-19.20Q106.30-22.72 106.30-28.35L106.30-28.35L106.30-28.35Q106.30-32 108.10-34.85L108.10-34.85L108.10-34.85Q109.89-37.70 112.77-39.62L112.77-39.62L112.77-39.62Q118.53-43.52 125.60-43.52L125.60-43.52L125.60-43.52Q132.67-43.52 136.10-41.41L136.10-41.41L136.10-41.41Q139.52-39.30 139.52-35.71L139.52-35.71L139.52-35.71Q139.52-32.58 137.09-30.59L137.09-30.59L137.09-30.59Q134.98-28.93 132.42-28.93L132.42-28.93L132.42-28.93Q129.86-28.93 128.06-29.57ZM177.92-4.80L177.92-4.80L177.92-4.80Q177.92-9.28 179.71-18.24L179.71-18.24L170.24-18.24L166.72 0L153.34 0L161.47-42.24L174.98-42.24L171.26-23.36L180.74-23.36L184.26-42.24L197.76-42.24L197.76-42.24Q196.86-37.50 195.71-32.19L195.71-32.19L193.54-21.76L193.54-21.76Q191.10-9.60 191.10-4.29L191.10-4.29L191.10-4.29Q191.10-2.11 191.81-0.90L191.81-0.90L191.81-0.90Q188.61 1.28 184.86 1.28L184.86 1.28L184.86 1.28Q181.12 1.28 179.52-0.51L179.52-0.51L179.52-0.51Q177.92-2.30 177.92-4.80ZM200.26-15.62L200.26-15.62L200.26-15.62Q200.26-27.71 206.53-35.33L206.53-35.33L206.53-35.33Q213.18-43.58 224.77-43.58L224.77-43.58L224.77-43.58Q233.15-43.58 237.38-39.52L237.38-39.52L237.38-39.52Q241.60-35.46 241.60-26.88L241.60-26.88L241.60-26.88Q241.60-13.82 234.94-6.21L234.94-6.21L234.94-6.21Q228.35 1.28 217.28 1.28L217.28 1.28L217.28 1.28Q208.64 1.28 204.45-3.04L204.45-3.04L204.45-3.04Q200.26-7.36 200.26-15.62ZM217.09-28.86L217.09-28.86L217.09-28.86Q214.21-17.34 214.21-8.26L214.21-8.26L214.21-8.26Q214.21-6.08 214.94-4.67L214.94-4.67L214.94-4.67Q215.68-3.26 217.63-3.26L217.63-3.26L217.63-3.26Q219.58-3.26 220.80-4.19L220.80-4.19L220.80-4.19Q222.02-5.12 222.98-7.23L222.98-7.23L222.98-7.23Q224.51-10.69 225.95-18.02L225.95-18.02L225.95-18.02Q227.39-25.34 227.52-28.38L227.52-28.38L227.52-28.38Q227.65-31.42 227.65-33.73L227.65-33.73L227.65-33.73Q227.65-36.03 226.94-37.50L226.94-37.50L226.94-37.50Q226.24-38.98 224.35-38.98L224.35-38.98L224.35-38.98Q222.46-38.98 221.18-37.82L221.18-37.82L221.18-37.82Q218.82-35.65 217.09-28.86ZM251.33 0L244.29 0L251.97-42.24L265.73-42.24L275.71-13.18L281.02-42.24L288.13-42.18L280.32 0L265.66 0L256.45-27.97L251.33 0ZM317.06-9.86L317.06-9.86L317.06-9.86Q318.27-8.32 318.27-5.82L318.27-5.82L318.27-5.82Q318.27-2.37 315.71-0.54L315.71-0.54L315.71-0.54Q313.15 1.28 309.12 1.28L309.12 1.28L309.12 1.28Q306.82 1.28 303.30 0.77L303.30 0.77L303.30 0.77Q296.38-0.32 294.27-0.32L294.27-0.32L294.27-0.32Q292.16-0.32 291.33-0.22L291.33-0.22L291.33-0.22Q290.50-0.13 289.15 0L289.15 0L297.02-42.24L324.61-42.24L324.61-42.24Q324.61-38.34 322.72-36.29L322.72-36.29L322.72-36.29Q320.83-34.24 317.12-34.24L317.12-34.24L317.12-34.24Q313.41-34.24 309.63-35.97L309.63-35.97L307.65-24.77L319.04-24.77L319.04-24.77Q319.04-21.38 317.38-19.49L317.38-19.49L317.38-19.49Q315.71-17.60 312.93-17.60L312.93-17.60L312.93-17.60Q310.14-17.60 308.42-18.24L308.42-18.24L308.42-18.24Q306.69-18.88 306.50-19.07L306.50-19.07L304.19-6.98L304.19-6.98Q305.73-6.78 308.61-6.78L308.61-6.78L308.61-6.78Q313.54-6.78 317.06-9.86ZM330.24 0L333.95-18.82L333.95-18.82Q332.10-36.16 325.57-39.87L325.57-39.87L325.57-39.87Q326.91-41.54 329.09-42.46L329.09-42.46L329.09-42.46Q331.26-43.39 333.89-43.39L333.89-43.39L333.89-43.39Q336.51-43.39 338.50-42.46L338.50-42.46L338.50-42.46Q340.48-41.54 341.76-39.55L341.76-39.55L341.76-39.55Q344.19-35.78 344.19-26.75L344.19-26.75L344.19-22.14L344.19-22.14Q348.03-33.41 351.87-38.27L351.87-38.27L351.87-38.27Q355.78-43.26 360.64-43.26L360.64-43.26L360.64-43.26Q362.56-43.26 363.84-42.27L363.84-42.27L363.84-42.27Q365.12-41.28 365.76-39.81L365.76-39.81L365.76-39.81Q360.83-37.63 356.10-31.36L356.10-31.36L356.10-31.36Q351.36-25.09 348.29-16.32L348.29-16.32L344.51 0L330.24 0Z" fill="#444"></path></g></g><style>text {
  font-size: 64px;
  font-family: Arial Black;
  dominant-baseline: central;
  text-anchor: middle;
}</style></svg>