<?xml version="1.0" encoding="UTF-8"?>
<svg id="Layer_1" data-name="Layer 1" xmlns="http://www.w3.org/2000/svg" viewBox="0 0 950 950">
  <defs>
    <style>
      .cls-1 {
        fill: #2673dd;
      }

      .cls-1, .cls-2 {
        fill-rule: evenodd;
      }

      .cls-2 {
        fill: #ea5f00;
      }
    </style>
  </defs>
  <path class="cls-2" d="m151.33,329.21c-74.19,0-134.33,60.15-134.33,134.19-.05,28.3,8.91,55.89,25.56,78.77,5.78-2.76,11.76-5.08,17.88-6.95-15.67-19.65-24.98-44.63-24.98-71.67,0-63.69,51.87-115.56,115.56-115.56s115.56,51.87,115.56,115.56c0,40.79-21.28,76.85-53.5,97.39,3.1,0,6.21,0,9.46-.15,10.49-.59,20.4-5.32,28.82-9.16,21.28-23.8,34.28-53.65,34.28-88.23,0-74.03-60.15-134.18-134.33-134.18Z"/>
  <path class="cls-1" d="m236.45,597c-7.54,2.51-14.92,3.99-22.02,4.14-30,1.18-51.58-7.83-72.27-16.7-18.48-7.83-35.77-15.22-57.04-14.04-20.1,1.63-34.14,12.86-34.73,13.3-4.14,3.25-4.73,9.31-1.48,13.45,3.25,4.14,9.46,4.88,13.6,1.63.15,0,10.19-7.98,24.09-9.02,16.26-.74,31.19,5.32,48.18,12.71,19.36,8.27,40.94,17.44,69.75,18.32,3.55.15,7.09,0,10.79-.15,9.02-.29,18.32-2.07,27.63-5.17,5.01-1.78,7.69-7.21,6.06-12.27-1.92-5.32-7.54-7.98-12.56-6.21Z"/>
  <path class="cls-1" d="m267.34,553.68c-9.16,6.35-27.63,17.14-48.77,17.88-26.9,1.18-44.48-6.65-63.25-14.63-19.66-8.57-40.05-17.44-70.64-16.11-28.37,1.03-52.46,17.29-64.29,26.75-4.28,3.41-4.98,9.64-1.57,13.92.03.04.06.08.1.12,3.41,4.28,9.64,4.98,13.92,1.57.04-.03.08-.06.12-.1,9.9-7.98,29.85-21.57,52.46-22.46,26.16-1.04,43.45,6.5,61.77,14.48,18.03,7.83,36.5,15.96,63.1,16.4,2.96,0,5.91,0,9.02-.15,26.15-1.04,48.32-13.89,59.4-21.43,4.58-3.1,5.62-9.31,2.51-13.89-3.1-4.44-9.46-5.62-13.89-2.36h0Z"/>
  <path class="cls-2" d="m158.87,547.05l.29.15c11.68,4.73,22.91,9.31,36.06,11.82,36.5-16.7,61.92-53.5,61.92-96.21.15-58.23-47.44-105.66-105.66-105.66s-105.96,47.44-105.96,105.66c-.03,25.57,9.27,50.27,26.16,69.46,3.25-.59,6.5-.89,9.9-1.18,33.69-1.92,56.9,7.54,77.29,15.96Zm7.54-71.23c-1.92-1.92-4.17-3.48-6.65-4.58-2.65-1.33-5.61-2.37-8.71-3.4-3.02-.97-5.98-2.1-8.87-3.4-6.21-2.36-11.38-5.91-15.66-10.94-4.29-4.88-6.21-11.08-6.21-18.62.15-4.88,1.19-9.16,2.96-12.86,1.92-3.69,4.44-6.8,7.69-9.16,3.25-2.36,6.8-4.29,10.79-5.47,4.13-1.2,8.41-1.8,12.71-1.77h.3c6.8.15,12.86,1.48,17.88,3.84,5,2.5,9.75,5.47,14.19,8.87l-10.49,15.07c-2.96-2.22-6.21-3.99-9.46-5.47-3.4-1.48-7.54-2.36-12.41-2.66-3.7-.29-7.1.44-9.9,2.22-2.96,1.63-4.44,4.14-4.44,7.39,0,1.92.44,3.7,1.48,5.17,1.04,1.48,2.51,2.81,4.29,3.84,1.77,1.18,3.69,1.92,5.61,2.81,1.92.74,3.99,1.48,5.77,2.22,3.84,1.33,7.69,2.95,11.52,4.87,3.72,1.88,7.2,4.21,10.35,6.95,3.1,2.66,5.47,5.91,7.39,9.6,1.77,3.7,2.66,7.98,2.52,13.01-.15,4.88-1.19,9.31-2.96,13-1.92,3.84-4.58,6.94-7.83,9.6-3.4,2.66-7.24,4.58-11.67,5.91-4.44,1.33-9.31,1.92-14.48,1.77-4.88-.15-9.31-.74-13.3-2.07-3.99-1.33-7.69-2.81-10.94-4.58-2.92-1.56-5.69-3.39-8.27-5.46-2.36-1.63-3.99-3.1-5.02-4.29l10.79-15.22c3.68,3.5,7.92,6.35,12.56,8.42,4.88,2.36,9.9,3.54,15.07,3.54,4.44.15,8.13-.89,11.38-2.81s4.73-4.88,4.88-8.57c0-2.81-.89-5.02-2.81-6.8h0Zm222.41-13.46c-3.1-2.81-6.5-5.02-10.35-7.09-3.84-1.92-7.68-3.69-11.67-5.02-1.93-.74-3.85-1.48-5.91-2.22-2.03-.69-3.96-1.64-5.76-2.81-1.77-1.04-3.1-2.36-4.29-3.84-1.06-1.52-1.63-3.32-1.62-5.17.15-3.25,1.63-5.76,4.44-7.39,2.95-1.63,6.21-2.36,10.04-2.07,4.88.3,9.16,1.19,12.56,2.66,3.4,1.63,6.65,3.4,9.6,5.62l10.64-15.07c-4.44-3.55-9.31-6.5-14.33-9.02-5.02-2.51-11.09-3.69-17.88-3.84h-.29c-4.44-.15-8.72.44-12.86,1.77s-7.69,3.1-10.94,5.47c-3.25,2.36-5.76,5.47-7.69,9.16-1.92,3.7-2.96,8.13-3.1,13.01-.15,7.54,1.92,13.74,6.21,18.62,4.24,4.88,9.62,8.64,15.67,10.94,2.81,1.19,5.76,2.36,9.02,3.25,3.1,1.03,6.06,2.22,8.72,3.54,2.66,1.33,4.88,2.81,6.65,4.73,1.77,1.92,2.8,4.14,2.65,6.94-.15,3.7-1.77,6.65-4.87,8.57-3.1,1.92-6.95,2.96-11.38,2.81-5.26-.16-10.44-1.36-15.23-3.55-4.88-2.36-9.16-5.17-12.71-8.42l-10.94,15.22c1.04,1.04,2.81,2.66,5.03,4.58,2.58,2.07,5.35,3.91,8.27,5.47,3.25,1.77,6.94,3.25,10.94,4.58,4.14,1.33,8.57,1.92,13.45,2.07,5.17.15,10.04-.44,14.48-1.77,4.44-1.33,8.42-3.25,11.82-5.91,3.36-2.61,6.09-5.95,7.98-9.75,1.92-3.84,2.96-8.28,3.1-13.15.15-5.02-.74-9.46-2.66-13.15-1.33-3.84-3.69-7.09-6.8-9.75Zm267.93-3.98c.89-.89,1.92-2.07,2.81-3.1,1.03-1.18,1.92-2.51,2.66-4.29.89-1.77,1.48-3.69,2.07-6.06.44-2.36.74-5.17.74-8.57,0-3.28-.6-6.54-1.77-9.6-1.15-3.09-2.85-5.94-5.02-8.42-2.22-2.51-4.73-4.73-7.83-6.5-3.22-1.85-6.8-3.01-10.49-3.4-2.51-.29-5.32-.59-8.27-.59-3.1-.15-6.21-.15-9.75-.15l-28.67.15v108.18h39.6c3.69,0,6.5,0,8.87-.15,3.99-.44,7.69-1.33,11.23-2.81,3.4-1.48,6.65-3.54,9.16-6.21,2.66-2.66,4.73-5.91,6.35-9.46,1.57-3.95,2.38-8.16,2.36-12.41,0-7.24-1.48-13-4.29-17.29-2.81-4.44-6.06-7.54-9.75-9.31h0Zm-45.52-32.07h9.31c3.1,0,5.91,0,8.28.15,2.36.15,4.58.3,6.21.44,3.69.44,6.65,1.63,8.87,3.55,2.36,1.77,3.54,4.44,3.4,7.69.15,4.14-1.18,7.24-3.4,9.02-2.37,1.77-5.32,2.96-9.02,3.4-1.77.3-3.84.44-6.21.44h-17.58v-24.68h.15Zm37.24,65.91c-2.66,2.51-6.95,3.99-12.86,4.29-1.77.15-3.99.29-6.94.15h-17.58v-27.93h9.01c2.81,0,5.47,0,7.98-.15,2.51-.15,4.73-.15,6.5,0,5.76.29,10.05,1.63,13.15,3.99,3.1,2.36,4.73,5.62,4.73,9.9.15,3.99-1.19,7.24-3.99,9.75h0Zm-161.38-34.44c-2.07-5.61-5.02-10.49-8.87-14.33-3.69-3.99-8.13-6.94-13.15-9.02-5.01-2.08-10.39-3.13-15.81-3.1-6.79,0-12.86,1.18-18.03,3.25-5.32,2.22-9.75,5.32-13.3,9.16-3.55,3.84-6.21,8.28-8.13,13.3-1.77,5.02-2.66,10.49-2.66,16.25,0,6.35,1.18,12.12,3.4,17.44,2.16,5.03,5.27,9.6,9.16,13.45,3.84,3.72,8.36,6.68,13.3,8.72,5.02,1.92,10.34,2.96,15.96,2.96,5.17,0,9.75-.44,13.6-1.33,3.53-.66,7-1.65,10.34-2.96,2.84-1.28,5.56-2.82,8.13-4.58,2.37-1.63,4.58-3.25,6.8-4.88l-9.6-13.45c-1.33,1.04-2.66,2.07-4.29,3.25-1.77,1.18-3.99,2.22-6.35,3.25-2.36.88-5.02,1.63-8.13,2.22-2.96.44-6.35.74-10.05.59-2.08-.17-4.16-.47-6.21-.89-2.19-.58-4.28-1.48-6.21-2.66-1.94-1.37-3.73-2.96-5.32-4.73-1.63-1.92-2.81-4.29-3.55-7.1l-.15-.74h61.63l.15-4.73c.29-7.39-.59-13.75-2.66-19.36Zm-59.71,7.83l.15-.59c.29-2.36,1.03-3.55,1.77-5.17l.44-.89c1.26-2.12,2.92-3.97,4.88-5.47,1.93-1.47,4.15-2.53,6.5-3.1,2.51-.74,5.02-1.19,7.54-1.19,5.91.15,10.79,1.77,14.33,5.03,1.77,1.48,3.25,2.96,4.43,4.58,1.19,1.63,1.92,3.54,2.22,6.06l.15.74s-42.42,0-42.42,0Zm132.56-26.01l-1.18-1.03c-2.51-2.22-5.77-3.99-9.46-5.17-3.55-1.33-7.83-2.07-12.71-2.07-5.47,0-10.64,1.04-15.37,3.11-4.67,1.91-8.86,4.84-12.27,8.57-3.55,3.69-6.21,8.28-8.28,13.6-1.92,5.17-2.96,11.08-2.96,17.58,0,5.77,1.04,11.23,2.96,16.26,2.07,5.02,4.73,9.31,8.28,13.15,3.53,3.7,7.68,6.75,12.27,9.02,4.73,2.06,9.75,3.1,15.37,3.1,4.88,0,9.16-.59,12.71-1.92,3.69-1.33,6.95-3.25,9.46-5.61l1.18-1.18v8.57h19.06v-81.87h-19.06v5.91Zm-1.77,44.33c-1.18,2.81-2.81,5.32-4.73,7.24-1.92,1.92-4.14,3.25-6.65,4.29-2.52.88-5.16,1.33-7.83,1.33-6.06,0-11.08-2.07-15.22-6.06-4.14-4.29-6.06-9.9-6.06-16.85s2.07-12.42,6.06-16.85c4.14-4.44,9.16-6.65,15.22-6.65,2.81,0,5.47.59,7.83,1.63,2.66,1.03,4.88,2.51,6.65,4.58,1.92,1.92,3.55,4.44,4.73,7.54,1.18,2.96,1.77,6.21,1.77,10.05,0,3.55-.59,6.8-1.77,9.75Zm180.44-44.33l-1.18-1.03c-2.51-2.22-5.76-3.99-9.46-5.17-3.54-1.33-7.83-2.07-12.71-2.07-5.47,0-10.64,1.04-15.37,3.11-4.67,1.91-8.86,4.84-12.27,8.57-3.55,3.69-6.21,8.28-8.27,13.6-1.92,5.17-2.96,11.08-2.96,17.58,0,5.77,1.03,11.23,2.96,16.26,2.07,5.02,4.73,9.31,8.27,13.15,3.53,3.7,7.68,6.75,12.27,9.02,4.73,2.06,9.75,3.1,15.37,3.1,4.88,0,9.16-.59,12.71-1.92,3.7-1.33,6.95-3.25,9.46-5.61l1.18-1.18v8.57h19.06v-81.43h-19.06v5.47Zm-1.77,44.33c-1.18,2.81-2.81,5.32-4.73,7.24-1.92,1.92-4.14,3.25-6.65,4.29-2.52.88-5.16,1.33-7.83,1.33-6.06,0-11.08-2.07-15.22-6.06-4.14-4.29-6.06-9.9-6.06-16.85s2.07-12.42,6.06-16.85c4.14-4.44,9.16-6.65,15.22-6.65,2.81,0,5.32.59,7.83,1.63,2.66,1.03,4.88,2.51,6.65,4.58,1.92,1.92,3.54,4.44,4.73,7.54,1.19,2.96,1.77,6.21,1.77,10.05,0,3.55-.59,6.8-1.77,9.75Zm160.05-14.48l34.73-37.98h-25.12l-28.67,31.18v-56.16h-19.21v109.36h19.21v-24.82l6.35-7.1,24.83,31.92h23.79l-35.91-46.4Zm-55.42-19.07c-1.77-5.02-5.17-9.46-10.05-13.15-4.88-3.7-11.08-5.62-18.47-5.62-3.84,0-7.83.59-11.82,1.77-3.49,1.05-6.75,2.75-9.6,5.02v-4.29h-19.36v81.73h19.36v-43.74c.15-2.96.44-5.76.74-8.42.44-2.81,1.18-5.17,2.36-7.24s2.96-3.69,5.17-5.02,5.02-2.07,8.42-2.22c4.29-.15,7.69,1.04,10.35,3.25,2.66,2.36,4.43,5.32,5.32,9.16.44,1.77.74,4.14,1.04,7.09.15,2.81.29,6.94.29,12.42v34.73h19.06v-39.45c.02-4.63-.12-9.27-.44-13.89-.27-4.12-1.07-8.2-2.37-12.12h0Z"/>
</svg>